<svg id="图层_1" data-name="图层 1" xmlns="http://www.w3.org/2000/svg" viewBox="0 0 137.8 137.8"><defs><style>.cls-1{fill:#515151;stroke:#515151;stroke-miterlimit:10;stroke-width:2px;}</style></defs><title>0</title><path class="cls-1" d="M72.17,14.66c-22,0-39.9,17-39.9,37.9a36.84,36.84,0,0,0,10.2,25.3L71,111.76q1.2,1.5,2.4,0l28-33.7a36,36,0,0,0,10.7-25.5c.1-20.9-17.8-37.8-39.9-37.9m0,105.6a10.16,10.16,0,0,1-7.7-3.5l-28.3-33.7A44.28,44.28,0,0,1,24,52.66c0-25.3,21.6-45.9,48.2-45.9s48.2,20.6,48.2,45.9a43.55,43.55,0,0,1-12.7,30.7l-27.8,33.4a10,10,0,0,1-7.7,3.5Z"/><path class="cls-1" d="M72.37,38.76a14.5,14.5,0,1,0,0,29,14.2,14.2,0,0,0,10.3-4.3,14.5,14.5,0,0,0-10.3-24.7m0,38.6a24.1,24.1,0,1,1,24.2-24.2,24.24,24.24,0,0,1-24.2,24.2Z"/><path class="cls-1" d="M87,53.26a14.46,14.46,0,0,0-4.2-10.2,14.57,14.57,0,0,0-24.9,10.2,14.55,14.55,0,0,0,29.1,0m-14.5-24.2a24.24,24.24,0,0,1,24.2,24.2,24.11,24.11,0,0,1-24.2,24,24.49,24.49,0,0,1-17.1-7.1,23.67,23.67,0,0,1-7.1-17A24.13,24.13,0,0,1,72.47,29.06Z"/></svg>