<?xml version="1.0" encoding="utf-8"?>
<!-- Generator: Adobe Illustrator 24.0.1, SVG Export Plug-In . SVG Version: 6.00 Build 0)  -->
<svg version="1.1" id="图层_1" xmlns="http://www.w3.org/2000/svg" xmlns:xlink="http://www.w3.org/1999/xlink" x="0px" y="0px"
	 viewBox="0 0 128 128" style="enable-background:new 0 0 128 128;" xml:space="preserve">
<style type="text/css">
	.st0{fill:#E59665;}
</style>
<path class="st0" d="M63.7,8.94c-23.64,0-42.85,19.15-42.85,42.66c0,10.47,3.9,20.56,10.91,28.48l30.6,38.13
	c0.83,1.09,1.72,1.09,2.62,0l30.01-37.87c7.59-8.24,11.49-18.07,11.49-28.67C106.55,28.04,87.33,8.94,63.7,8.94 M63.7,127.72
	c-3.21,0.01-6.24-1.45-8.24-3.96l-30.4-37.93c-8.44-9.4-13.1-21.6-13.1-34.23C11.98,23.12,35.16,0,63.7,0s51.73,23.12,51.73,51.61
	c0,12.9-4.73,24.84-13.67,34.48L71.94,123.7C69.96,126.23,66.92,127.72,63.7,127.72L63.7,127.72z"/>
<path class="st0" d="M63.89,34.29c-4.21,0-8.11,1.66-11.11,4.6c-2.92,2.91-4.55,6.86-4.53,10.98c0,8.56,7.03,15.52,15.65,15.52
	c4.15,0,8.12-1.66,11.05-4.6c2.92-2.91,4.55-6.86,4.53-10.98C79.54,41.25,72.51,34.29,63.89,34.29 M63.89,75.74
	c-14.3,0-25.93-11.56-25.99-25.8c0.01-14.32,11.61-25.92,25.93-25.93c14.3,0,25.99,11.56,25.99,25.8c0.02,6.88-2.72,13.48-7.6,18.33
	C77.43,73,70.92,75.74,63.89,75.74z"/>
<path class="st0" d="M79.54,49.87c0.02-4.12-1.61-8.08-4.53-10.98c-2.93-2.94-6.9-4.59-11.05-4.6c-8.62,0-15.65,6.96-15.65,15.52
	c-0.02,4.12,1.62,8.08,4.54,10.98c2.94,2.95,6.94,4.61,11.11,4.6C72.52,65.39,79.54,58.43,79.54,49.87 M63.96,23.95
	c6.9,0,13.41,2.75,18.33,7.6c4.88,4.85,7.62,11.45,7.6,18.33c0,14.24-11.69,25.8-25.99,25.8c-6.9,0-13.41-2.75-18.33-7.6
	c-4.89-4.82-7.63-11.4-7.6-18.26C37.97,35.57,49.65,23.95,63.96,23.95z"/>
</svg>
