<svg id="图层_1" data-name="图层 1" xmlns="http://www.w3.org/2000/svg" viewBox="0 0 126.48 115.85"><defs><style>.cls-1,.cls-2{fill:#333;}.cls-2{stroke:#333;stroke-miterlimit:10;}</style></defs><title>4.26</title><path class="cls-1" d="M102.51,80.11,40.9,79.93a2.38,2.38,0,0,1-2.32-2L36.32,65.72a0,0,0,0,1,0,0h65.05a8.85,8.85,0,0,0,8.26-5.9L120.23,31a4.5,4.5,0,0,0-4.09-6.12H28.83s0,0,0,0l-2.2-11.94a4.9,4.9,0,0,0-4.78-4.08H8A4.34,4.34,0,0,0,3.7,12.72a4.23,4.23,0,0,0,4.13,4.67h8.51a3.2,3.2,0,0,1,3.12,2.67L21.3,30l9.43,51.11a8.84,8.84,0,0,0,8.6,7.36l63.4.18A4.24,4.24,0,0,0,106.86,84,4.34,4.34,0,0,0,102.51,80.11Zm7.17-44.53L103.6,52.14a7.46,7.46,0,0,1-7,5H34.77a0,0,0,0,1,0,0L30.38,33.5a0,0,0,0,1,0,0h77.84A1.57,1.57,0,0,1,109.68,35.58Z"/><path class="cls-2" d="M44.56,112.94A10.67,10.67,0,0,1,37,109.8h0a10.77,10.77,0,1,1,7.6,3.14Zm0-16.49a5.75,5.75,0,0,0-4.07,9.81h0a5.75,5.75,0,1,0,4.07-9.81Z"/><path class="cls-2" d="M93.11,113a10.68,10.68,0,0,1-7.6-3.15h0a10.74,10.74,0,1,1,7.6,3.15Zm0-16.5a5.74,5.74,0,0,0-4.06,9.81h0a5.75,5.75,0,0,0,8.13-8.13A5.75,5.75,0,0,0,93.11,96.45Z"/></svg>