<svg id="图层_1" data-name="图层 1" xmlns="http://www.w3.org/2000/svg" viewBox="0 0 126.48 115.85"><defs><style>.cls-1{fill:#ff6700;}</style></defs><title>4.26</title><path class="cls-1" d="M44.69,88a10.71,10.71,0,0,1,4.11.8A11,11,0,0,1,52.23,91a9.83,9.83,0,0,1,2.29,3.38,11,11,0,0,1,0,8.23A9.79,9.79,0,0,1,52.23,106a11.9,11.9,0,0,1-3.43,2.29,10.05,10.05,0,0,1-4.11.85,9.93,9.93,0,0,1-4.17-.85A12.22,12.22,0,0,1,37.14,106a9.76,9.76,0,0,1-2.28-3.37,11,11,0,0,1,0-8.23A9.8,9.8,0,0,1,37.14,91a11.23,11.23,0,0,1,3.38-2.23A10.58,10.58,0,0,1,44.69,88Zm47.56.23a11.24,11.24,0,0,1,4.17.8,10.33,10.33,0,0,1,3.43,2.23,11,11,0,0,1,2.28,3.37,10.3,10.3,0,0,1,0,8.24,11.14,11.14,0,0,1-2.28,3.37,10.94,10.94,0,0,1-3.43,2.28,10.38,10.38,0,0,1-4.17.86,10,10,0,0,1-4.12-.86,10.8,10.8,0,0,1-5.66-5.65,10.3,10.3,0,0,1,0-8.24,10.87,10.87,0,0,1,2.29-3.37A10.27,10.27,0,0,1,88.13,89,10.8,10.8,0,0,1,92.25,88.22Zm19.2-64.93a11.52,11.52,0,0,1,5,.86,5.63,5.63,0,0,1,2.52,2.11,4.83,4.83,0,0,1,.68,2.69,8.53,8.53,0,0,1-.4,2.45c-.22.69-.7,2.1-1.42,4.23s-1.55,4.48-2.46,7-1.81,5.08-2.69,7.6-1.54,4.49-2,5.94q-1.49,4.57-3.77,6.35a8.88,8.88,0,0,1-5.6,1.77h-60L43,74.62h57.62q5.49,0,5.49,4.69A7,7,0,0,1,105,83.25c-.72,1.1-2.15,1.66-4.29,1.66H40.8a6.82,6.82,0,0,1-3.83-1,8.59,8.59,0,0,1-2.57-2.69,16,16,0,0,1-1.66-3.6,32.88,32.88,0,0,1-1-3.66c-.08-.46-.29-1.56-.63-3.31s-.76-4-1.26-6.58-1-5.56-1.65-8.8S27,48.74,26.4,45.47q-2.17-11.55-4.92-25.73H12.91a4.62,4.62,0,0,1-2.86-.85,7.57,7.57,0,0,1-1.89-2.06,8.06,8.06,0,0,1-1-2.57,12.52,12.52,0,0,1-.28-2.52A5,5,0,0,1,8.39,8a5.77,5.77,0,0,1,4.17-1.49H24.11a8.23,8.23,0,0,1,3.66.69,6.3,6.3,0,0,1,2.17,1.71,6.53,6.53,0,0,1,1.14,2.18L31.66,13c.15.61.3,1.47.45,2.57s.31,2.23.46,3.37c.23,1.38.46,2.82.69,4.35Z"/></svg>