<svg id="图层_1" data-name="图层 1" xmlns="http://www.w3.org/2000/svg" viewBox="0 0 126.48 115.85"><defs><style>.cls-1,.cls-2{fill:#ff6700;}.cls-2{stroke:#ff6700;stroke-miterlimit:10;stroke-width:3px;}</style></defs><title>4.26</title><path class="cls-1" d="M48.1,7.92H19.27a9.73,9.73,0,0,0-9.72,9.72V46.47a9.72,9.72,0,0,0,9.72,9.71H48.1a9.72,9.72,0,0,0,9.71-9.71V17.64A9.73,9.73,0,0,0,48.1,7.92Zm2,38.55a2,2,0,0,1-2,2H19.27a2,2,0,0,1-2-2V17.64a2,2,0,0,1,2-2H48.1a2,2,0,0,1,2,2Z"/><path class="cls-1" d="M50.13,17.64V46.47a2,2,0,0,1-2,2H19.27a2,2,0,0,1-2-2V17.64a2,2,0,0,1,2-2H48.1A2,2,0,0,1,50.13,17.64Z"/><path class="cls-1" d="M48.1,62.12H19.27a9.73,9.73,0,0,0-9.72,9.71v28.84a9.72,9.72,0,0,0,9.72,9.71H48.1a9.72,9.72,0,0,0,9.71-9.71V71.83A9.73,9.73,0,0,0,48.1,62.12Zm2,38.55a2,2,0,0,1-2,2H19.27a2,2,0,0,1-2-2V71.83a2,2,0,0,1,2-2H48.1a2,2,0,0,1,2,2Z"/><path class="cls-1" d="M50.13,71.83v28.84a2,2,0,0,1-2,2H19.27a2,2,0,0,1-2-2V71.83a2,2,0,0,1,2-2H48.1A2,2,0,0,1,50.13,71.83Z"/><path class="cls-1" d="M102.84,7.92H74a9.73,9.73,0,0,0-9.72,9.72V46.47A9.72,9.72,0,0,0,74,56.18h28.83a9.72,9.72,0,0,0,9.72-9.71V17.64A9.73,9.73,0,0,0,102.84,7.92Zm2,38.55a2,2,0,0,1-2,2H74a2,2,0,0,1-2-2V17.64a2,2,0,0,1,2-2h28.83a2,2,0,0,1,2,2Z"/><path class="cls-1" d="M104.87,17.64V46.47a2,2,0,0,1-2,2H74a2,2,0,0,1-2-2V17.64a2,2,0,0,1,2-2h28.83A2,2,0,0,1,104.87,17.64Z"/><path class="cls-2" d="M102.59,65.83a15.67,15.67,0,0,0-11.73,5.48,15.64,15.64,0,0,0-11.73-5.48A14.13,14.13,0,0,0,64.8,80.17c0,9.9,8.86,18,22.41,30l1.24,1.15a3.56,3.56,0,0,0,4.83,0l1.23-1.15c14.51-13.36,24-21.77,22.19-32.65a14.24,14.24,0,0,0-14.11-11.66ZM91.12,106.49h-.26l-.26-.26C78.09,95,70,87.73,70,80.17a8.91,8.91,0,0,1,9.12-9.12,10.6,10.6,0,0,1,8.51,4.65,3.65,3.65,0,0,0,3,1.6h.56a3.69,3.69,0,0,0,3.1-1.72,10.11,10.11,0,0,1,8.27-4.53,8.91,8.91,0,0,1,9.12,9.12c0,7.56-8.08,14.86-20.59,26.32Z"/></svg>