<svg id="图层_1" data-name="图层 1" xmlns="http://www.w3.org/2000/svg" viewBox="0 0 127 127"><defs><style>.cls-1{fill:none;stroke:#646464;stroke-miterlimit:10;stroke-width:8px;}</style></defs><title>4.26</title><path class="cls-1" d="M93.78,114.61a9.41,9.41,0,0,1-3.81-1l-26-12.5-26.24,12.5a8.27,8.27,0,0,1-8.41-.58,7.79,7.79,0,0,1-3.21-7.69l5.41-26.91L10.85,60A8.21,8.21,0,0,1,8.64,52a7.91,7.91,0,0,1,6.61-5.39l28.65-5,12.82-25a8.2,8.2,0,0,1,7.21-4.42,8,8,0,0,1,7.21,4.42L84,41.57l28.65,4.8A7.88,7.88,0,0,1,117,59.83L96.38,78.47l5.21,26.91a7.65,7.65,0,0,1-3.2,7.69,7.37,7.37,0,0,1-4.61,1.54Z"/></svg>