<svg id="图层_1" data-name="图层 1" xmlns="http://www.w3.org/2000/svg" viewBox="0 0 127 127"><defs><style>.cls-1{fill:#fec300;}</style></defs><title>4.26</title><path class="cls-1" d="M95.28,117a9.57,9.57,0,0,1-4-1l-27.2-13L36.7,116a8.61,8.61,0,0,1-8.78-.6,8.14,8.14,0,0,1-3.35-8l5.65-28.1L8.67,60a8.6,8.6,0,0,1-2.3-8.44,8.23,8.23,0,0,1,6.9-5.62l29.92-5.22L56.58,14.62A8.56,8.56,0,0,1,64.11,10a8.32,8.32,0,0,1,7.53,4.62L85,40.71l29.92,5a8.23,8.23,0,0,1,4.6,14.05L98,79.26l5.44,28.1a8,8,0,0,1-3.34,8A7.7,7.7,0,0,1,95.28,117Z"/></svg>