<svg id="图层_1" data-name="图层 1" xmlns="http://www.w3.org/2000/svg" viewBox="0 0 127 127"><defs><style>.cls-1{fill:#515151;}</style></defs><title>3,30</title><path class="cls-1" d="M78.8,101.36l9.59-20.52.47-.64a30.62,30.62,0,1,0-49.25.06l.48.64,9.62,20.46Zm7.25,3.38a6.76,6.76,0,0,1,.9,3.37v10.76a6.75,6.75,0,0,1-6.75,6.75h-32a6.75,6.75,0,0,1-6.75-6.75V108.11a6.74,6.74,0,0,1,1-3.45L33.18,85A38.61,38.61,0,1,1,95.3,85l-9.25,19.79ZM79,110.66l-29.48-.07v7H79ZM60.06,5.32a4,4,0,1,1,8-.14l.15,9a4,4,0,0,1-8,.14l-.15-9Zm41.17,13.56A4,4,0,0,1,107,24.45L100.66,31a4,4,0,0,1-5.75-5.57Zm19.4,38.68a4,4,0,0,1,.11,8l-9,.13a4,4,0,0,1-.12-8ZM21.15,24.61a4,4,0,0,1,5.57-5.75l6.51,6.31a4,4,0,0,1-5.56,5.75ZM7.49,65.84a4,4,0,1,1-.11-8l9-.13a4,4,0,0,1,.12,8Z"/><path class="cls-1" d="M80.2,126.62h-32a7.76,7.76,0,0,1-7.75-7.75V108.11a7.66,7.66,0,0,1,.83-3.48l-9-19.09a39.61,39.61,0,1,1,63.84-.08l-9,19.25a7.84,7.84,0,0,1,.78,3.4v10.76A7.75,7.75,0,0,1,80.2,126.62ZM64.17,24.4A37.63,37.63,0,0,0,34,84.43l.1.17,9.46,20.12-.27.45a5.76,5.76,0,0,0-.81,2.94v10.76a5.76,5.76,0,0,0,5.75,5.75h32A5.76,5.76,0,0,0,86,118.87V108.11a5.66,5.66,0,0,0-.77-2.87l-.26-.45,9.57-20.44A37.63,37.63,0,0,0,66.18,24.46C65.51,24.42,64.83,24.4,64.17,24.4ZM80,118.62H48.47v-9l31.48.08Zm-29.48-2H78v-5l-27.48-.07Zm29-14.26H49.07l-9.85-21-.41-.56a31.62,31.62,0,0,1,4.25-42.32A31.62,31.62,0,0,1,89.67,80.79l-.42.56Zm-29.09-2H78.16l9.42-20.11.48-.65a29.61,29.61,0,1,0-47.65.06l.58.81ZM7.43,66.84a5,5,0,0,1-.07-10l9-.13a5,5,0,0,1,5.07,4.93,5,5,0,0,1-4.93,5.07l-9,.13Zm9-8.13h0l-9,.13a3,3,0,0,0-3,3,3,3,0,0,0,3.05,3l9-.13a3,3,0,0,0,0-6Zm95.24,8a5,5,0,0,1-.07-10l9-.13A5.09,5.09,0,0,1,124.17,58a5,5,0,0,1-3.42,8.59l-9,.13Zm9-8.13-9,.13a3,3,0,0,0,0,6h0l9-.13a3,3,0,0,0,2.1-.91,3,3,0,0,0-.06-4.25,3,3,0,0,0-2.13-.84ZM97.79,33.18A5,5,0,0,1,94.2,24.7l6.31-6.51A5,5,0,0,1,104,16.67a4.86,4.86,0,0,1,3.56,1.41,5,5,0,0,1,.11,7.07l-6.32,6.51A5,5,0,0,1,97.79,33.18Zm6.31-14.51a3,3,0,0,0-2.15.91l-6.32,6.51a3,3,0,0,0,.07,4.24,3,3,0,0,0,4.24-.06l6.31-6.51a3,3,0,0,0-2.15-5.09ZM30.45,33.05A5,5,0,0,1,27,31.64l-6.52-6.31h0a5,5,0,0,1-.12-7.07,5,5,0,0,1,3.51-1.52,5,5,0,0,1,3.56,1.4l6.52,6.31A5,5,0,0,1,30.53,33ZM23.93,18.74h-.05a2.94,2.94,0,0,0-2.1.91,3,3,0,0,0,.07,4.24h0l6.51,6.31A2.85,2.85,0,0,0,30.5,31a2.92,2.92,0,0,0,2.1-.91,3,3,0,0,0-.06-4.24L26,19.58A3,3,0,0,0,23.93,18.74Zm40.28.51a5,5,0,0,1-5-4.92l-.15-9a5,5,0,0,1,1.4-3.56A5,5,0,0,1,64,.25a5.1,5.1,0,0,1,3.56,1.4,5,5,0,0,1,1.53,3.51l.15,9a5,5,0,0,1-4.91,5.09Zm-.15-17h0a3,3,0,0,0-3,3.05l.15,9a3,3,0,0,0,.92,2.11,3.09,3.09,0,0,0,2.13.84,3,3,0,0,0,2.95-3.05l-.15-9a3,3,0,0,0-3-2.95Z"/></svg>