<svg  xmlns="http://www.w3.org/2000/svg" viewBox="0 0 127 127"><defs><style>.cls-1{fill:#515151;stroke:#515151;stroke-miterlimit:10;stroke-width:3px;}</style></defs><title>4.26</title><path class="cls-1" d="M68.58,16.06H39.07v6.47H68.58A3.48,3.48,0,0,1,72,26V89a3.48,3.48,0,0,1-3.44,3.49H51a14.06,14.06,0,0,0-26.65,0H3V99H23.6a14.12,14.12,0,0,0,28.09,0H68.58a9.9,9.9,0,0,0,9.81-10V26A9.9,9.9,0,0,0,68.58,16.06ZM37.64,105.23A7.82,7.82,0,0,1,30.05,99a8.37,8.37,0,0,1-.18-1.67,8,8,0,0,1,1.61-4.8,7.67,7.67,0,0,1,12.33,0,7.88,7.88,0,0,1,1.61,4.8A7.7,7.7,0,0,1,45.24,99,7.81,7.81,0,0,1,37.64,105.23Z"/><path class="cls-1" d="M122.12,51.25,106.15,35a9.66,9.66,0,0,0-6.93-2.93H83.06a9.89,9.89,0,0,0-9.81,10V89a9.88,9.88,0,0,0,9.81,10h2.55a14.1,14.1,0,0,0,27.57,0h2A9.88,9.88,0,0,0,125,89V58.29A10,10,0,0,0,122.12,51.25ZM99.4,103.65A7.89,7.89,0,1,1,106.48,99,7.76,7.76,0,0,1,99.4,103.65ZM118.63,89a3.46,3.46,0,0,1-3.44,3.49h-2a14.1,14.1,0,0,0-27.57,0H83.06A3.46,3.46,0,0,1,79.62,89v-47a3.47,3.47,0,0,1,3.44-3.5H99.22a3.42,3.42,0,0,1,2.43,1l16,16.23a3.52,3.52,0,0,1,1,2.47Z"/><path class="cls-1" d="M108.09,69.94H86.79V47.73a3.19,3.19,0,1,1,6.37,0V63.15h14.93a3.4,3.4,0,0,1,0,6.79Z"/><path class="cls-1" d="M62.9,40.72H39.07a3.24,3.24,0,0,1,0-6.47H62.9a3.24,3.24,0,0,1,0,6.47Z"/><path class="cls-1" d="M49.55,58.44H25.73a3.24,3.24,0,0,1,0-6.47H49.55a3.24,3.24,0,0,1,0,6.47Z"/><path class="cls-1" d="M36,73.47H12.15a3.4,3.4,0,0,1,0-6.79H36a3.4,3.4,0,0,1,0,6.79Z"/></svg>