<svg id="图层_1" data-name="图层 1" xmlns="http://www.w3.org/2000/svg" viewBox="0 0 127 127"><defs><style>.cls-1{fill:#d26e3f;}</style></defs><title>4.26</title><path class="cls-1" d="M64.72,52.53A23.24,23.24,0,1,1,88,29.29,23.26,23.26,0,0,1,64.72,52.53Zm0-36.47A13.24,13.24,0,1,0,78,29.29,13.24,13.24,0,0,0,64.72,16.06Z"/><path class="cls-1" d="M21.61,119.17A19.62,19.62,0,1,1,41.23,99.55,19.64,19.64,0,0,1,21.61,119.17Zm0-31.23A11.62,11.62,0,1,0,33.23,99.55,11.63,11.63,0,0,0,21.61,87.94Z"/><path class="cls-1" d="M64.75,119.17c-.41,0-.83,0-1.25,0a19.53,19.53,0,1,1,1.25,0Zm0-31.23a11.62,11.62,0,1,0,11.6,12.33h0A11.61,11.61,0,0,0,65.44,88Z"/><path class="cls-1" d="M106.86,119.17a19.62,19.62,0,1,1,19.62-19.62A19.64,19.64,0,0,1,106.86,119.17Zm0-31.23a11.62,11.62,0,1,0,11.62,11.61A11.63,11.63,0,0,0,106.86,87.94Z"/><path class="cls-1" d="M107.36,88.08a4,4,0,0,1-4-4V73.81c0-3.4-2.4-6.16-5.36-6.16H31.44c-3,0-5.36,2.76-5.36,6.16V84.08a4,4,0,0,1-8,0V73.81c0-7.81,6-14.16,13.36-14.16H98c7.37,0,13.36,6.35,13.36,14.16V84.08A4,4,0,0,1,107.36,88.08Z"/><path class="cls-1" d="M64.72,87.94a4,4,0,0,1-4-4V47.53a4,4,0,0,1,8,0V83.94A4,4,0,0,1,64.72,87.94Z"/></svg>