<svg id="图层_1" data-name="图层 1" xmlns="http://www.w3.org/2000/svg" viewBox="0 0 137.8 137.8"><defs><style>.cls-1{fill:#515151;}</style></defs><title>0</title><path class="cls-1" d="M115.93,29.12h-3.4c2-6.8,1.2-13-2.5-17.1a15.06,15.06,0,0,0-7.7-4.3,20.15,20.15,0,0,0-8.8.1c-5.9,1.2-12.1,4.6-17.4,9.4a37.61,37.61,0,0,0-6.2,7.1,51.71,51.71,0,0,0-6.2-7.1,39.31,39.31,0,0,0-17.4-9.4,20.15,20.15,0,0,0-8.8-.1,14.39,14.39,0,0,0-7.7,4.3c-3.8,4.2-4.7,10.4-2.6,17.1h-3.3a10,10,0,0,0-10,10v18.6a10.08,10.08,0,0,0,8,9.8v41.8a10,10,0,0,0,10,10H108a10,10,0,0,0,10-10V67.52a10,10,0,0,0,7.7-9.7V39.12A9.74,9.74,0,0,0,115.93,29.12Zm0,10v18.6h-41V39.12Zm-33-14.5a28.33,28.33,0,0,1,12.7-7c3.2-.7,5.8-.2,7,1.1,1.3,1.5,1.5,5.5-.8,10.3h-23A27.83,27.83,0,0,1,82.93,24.62Zm-45.7-5.8c1.3-1.4,3.8-1.8,7-1.1a28.85,28.85,0,0,1,12.7,7,34.72,34.72,0,0,1,4.1,4.5H37.93C35.83,24.72,35.53,20.62,37.23,18.82Zm-13.3,20.3h41v18.6h-41Zm8.1,70.2V67.72H65v41.6Zm76.1.1H74.93V67.72h33.2v41.7Z"/></svg>