<svg id="图层_1" data-name="图层 1" xmlns="http://www.w3.org/2000/svg" viewBox="0 0 126.48 115.85"><defs><style>.cls-1{fill:#333;}</style></defs><title>4.26</title><path class="cls-1" d="M92.55,110.68H72.12a3.73,3.73,0,0,1-3.79-3.79V74.26H56.63v32.63a3.73,3.73,0,0,1-3.79,3.79H32.73A11.4,11.4,0,0,1,21.36,99.31V66H19.22a8.87,8.87,0,0,1-8.9-8.9A8.5,8.5,0,0,1,12.79,51l38.4-40.7a16.62,16.62,0,0,1,23.4-.66,1.29,1.29,0,0,0,.66.66L113.64,51a8.82,8.82,0,0,1-6.43,15h-3.29V99.31a11.4,11.4,0,0,1-11.37,11.37ZM76.07,103.1H92.55a4,4,0,0,0,4-3.95V62.24a3.73,3.73,0,0,1,3.79-3.79h7.09a1.23,1.23,0,0,0,1.15-.83,1.29,1.29,0,0,0-.33-1.48L69.64,15.6A8.9,8.9,0,0,0,57,15.27a.35.35,0,0,0-.33.33L18.23,56.14a1.3,1.3,0,0,0,0,1.81,1.21,1.21,0,0,0,1,.33h6.1a3.73,3.73,0,0,1,3.79,3.79V99.15a4,4,0,0,0,4,3.95H49.38V74.26A7.56,7.56,0,0,1,57,66.68H68.65a7.56,7.56,0,0,1,7.58,7.58l-.16,28.84Z"/></svg>