<svg id="图层_1" data-name="图层 1" xmlns="http://www.w3.org/2000/svg" viewBox="0 0 126.48 115.85"><defs><style>.cls-1{fill:#ff6700;}</style></defs><title>4.26</title><path class="cls-1" d="M113.64,51l-38.4-40.7a1.29,1.29,0,0,1-.66-.66,16.62,16.62,0,0,0-23.4.66L12.79,51a8.46,8.46,0,0,0-2.47,6.1,8.86,8.86,0,0,0,8.9,8.9h2.14V99.32a11.39,11.39,0,0,0,11.37,11.37h20.1a3.73,3.73,0,0,0,3.79-3.79V74.28h11.7V106.9a3.73,3.73,0,0,0,3.79,3.79H92.54a11.38,11.38,0,0,0,11.37-11.37V66h3.3a8.82,8.82,0,0,0,6.43-15Zm-5.11,6.59a1.24,1.24,0,0,1-1.15.83h-7.09a3.73,3.73,0,0,0-3.79,3.79V99.16a4,4,0,0,1-4,4H76.07l.16-28.83a7.56,7.56,0,0,0-7.58-7.58H57a7.56,7.56,0,0,0-7.58,7.58v28.83H33.06a4,4,0,0,1-4-4V62.08a3.73,3.73,0,0,0-3.79-3.79H19.22a1.21,1.21,0,0,1-1-.33,1.28,1.28,0,0,1,0-1.81L56.62,15.61a.36.36,0,0,1,.33-.33,8.91,8.91,0,0,1,12.69.33L108.2,56.15A1.32,1.32,0,0,1,108.53,57.63Z"/><path class="cls-1" d="M108.53,57.63a1.24,1.24,0,0,1-1.15.83h-7.09a3.73,3.73,0,0,0-3.79,3.79V99.16a4,4,0,0,1-4,4H76.07l.16-28.83a7.56,7.56,0,0,0-7.58-7.58H57a7.56,7.56,0,0,0-7.58,7.58v28.83H33.06a4,4,0,0,1-4-4V62.08a3.73,3.73,0,0,0-3.79-3.79H19.22a1.21,1.21,0,0,1-1-.33,1.28,1.28,0,0,1,0-1.81L56.62,15.61a.36.36,0,0,1,.33-.33,8.91,8.91,0,0,1,12.69.33L108.2,56.15A1.32,1.32,0,0,1,108.53,57.63Z"/></svg>