<svg id="图层_1" data-name="图层 1" xmlns="http://www.w3.org/2000/svg" viewBox="0 0 127 127"><defs><style>.cls-1{fill:#515151;}</style></defs><title>3,30</title><path class="cls-1" d="M90.85,75.63c1.56,1.25,4.05.62,5.3-1.25a4.67,4.67,0,0,0,.62-2.81,6.79,6.79,0,0,0-1.55-2.49,47.58,47.58,0,0,0-6.87-3.74,30.42,30.42,0,0,0,7.18-10.61,35.22,35.22,0,0,0,2.8-14A34.87,34.87,0,0,0,63.41,5.77C44.07,5.77,28.79,21.68,28.79,41A34.68,34.68,0,0,0,39.08,65.65,57.36,57.36,0,0,0,5.71,117.73a3.61,3.61,0,0,0,3.75,3.74,3.6,3.6,0,0,0,3.74-3.74A50,50,0,0,1,45.63,71a35.33,35.33,0,0,0,35.55,0A46.59,46.59,0,0,1,90.85,75.63ZM90.54,41a26.29,26.29,0,0,1-2.19,10.92,25.86,25.86,0,0,1-5.92,8.42A27.13,27.13,0,1,1,90.54,41ZM119.85,100,105.51,85.61a4.34,4.34,0,0,0-5.93,0,4.66,4.66,0,0,0-1.25,2.8,3.05,3.05,0,0,0,1.25,2.81l7.49,7.48H81.18a4.06,4.06,0,0,0,0,8.11h25.89l-7.49,7.49a4.66,4.66,0,0,0-1.25,2.8,3.05,3.05,0,0,0,1.25,2.81,3.77,3.77,0,0,0,5.61,0l14.35-14.35c.31-.31.62-.93.94-1.24a5.35,5.35,0,0,0,0-3.12A2.4,2.4,0,0,0,119.85,100Z"/><path class="cls-1" d="M9.46,123a5.13,5.13,0,0,1-5.25-5.24A59.06,59.06,0,0,1,36.58,65.19,36.11,36.11,0,0,1,27.29,41c0-20.26,16.2-36.74,36.12-36.74A36.47,36.47,0,0,1,99.83,40.7a36.91,36.91,0,0,1-2.92,14.62,30.55,30.55,0,0,1-6,9.51c1.14.58,2.21,1.24,3.27,1.88.59.37,1.19.73,1.78,1.07l.17.1.15.14A8.37,8.37,0,0,1,98.2,71.1l.07.23v.24a6.06,6.06,0,0,1-.87,3.64,5.74,5.74,0,0,1-3.86,2.51A4.61,4.61,0,0,1,90,76.84a43.58,43.58,0,0,0-8.65-4.24,36.81,36.81,0,0,1-35.83,0A48.52,48.52,0,0,0,14.7,117.73,5.13,5.13,0,0,1,9.46,123Zm54-115.7C45.15,7.27,30.29,22.41,30.29,41a33.2,33.2,0,0,0,9.85,23.58l1.52,1.52-1.95.9a56.05,56.05,0,0,0-32.5,50.72A2.1,2.1,0,0,0,9.46,120a2.1,2.1,0,0,0,2.24-2.24A51.55,51.55,0,0,1,45.11,69.54l.68-.25.61.37a33.72,33.72,0,0,0,34,0L81,69.3l.66.24a47.25,47.25,0,0,1,10,4.84l.11.08a1.62,1.62,0,0,0,1.29.29,2.77,2.77,0,0,0,1.82-1.2,2.81,2.81,0,0,0,.37-1.71,5.33,5.33,0,0,0-1-1.57l-1.67-1a28.78,28.78,0,0,0-4.78-2.53l-2.18-.82,1.64-1.64a28.93,28.93,0,0,0,6.84-10.09,34,34,0,0,0,2.7-13.49A33.46,33.46,0,0,0,63.41,7.27Zm39,115.39A4.9,4.9,0,0,1,98.51,121a4.66,4.66,0,0,1-1.68-3.89,6.06,6.06,0,0,1,1.69-3.86l4.92-4.93H81.18a5.56,5.56,0,0,1,0-11.11h22.26l-4.83-4.82a4.66,4.66,0,0,1-1.78-4,6,6,0,0,1,1.69-3.86,5.84,5.84,0,0,1,8,0l14.34,14.34a4,4,0,0,1,1,2,6.9,6.9,0,0,1,0,3.9l-.11.34-.25.25a3.3,3.3,0,0,0-.29.39,5.05,5.05,0,0,1-.65.85l-14.25,14.26A4.83,4.83,0,0,1,102.39,122.66ZM81.18,100.2a2.56,2.56,0,0,0,0,5.11h29.51l-10,10a3.23,3.23,0,0,0-.81,1.74c0,1.09.29,1.37.58,1.56l.25.17.17.25a2,2,0,0,0,1.56.58,2,2,0,0,0,1.56-.58l.18-.23,14.35-14.35a2.84,2.84,0,0,0,.28-.39l.36-.52a3.77,3.77,0,0,0-.07-1.92l-.08-.35a1.49,1.49,0,0,0-.18-.31L104.45,86.67a3,3,0,0,0-3.81,0,3.23,3.23,0,0,0-.81,1.74c0,1.09.29,1.37.58,1.56l.23.19,10,10ZM63.41,69.64A28.63,28.63,0,1,1,92,41a27.72,27.72,0,0,1-2.32,11.54,27.12,27.12,0,0,1-6.23,8.86A28.55,28.55,0,0,1,63.41,69.64Zm0-54.26a25.63,25.63,0,1,0,18,43.91A24.22,24.22,0,0,0,87,51.37,24.77,24.77,0,0,0,89,41,25.66,25.66,0,0,0,63.41,15.38Z"/></svg>