<svg id="图层_1" data-name="图层 1" xmlns="http://www.w3.org/2000/svg" viewBox="0 0 137.25 128"><defs><style>.cls-1{fill:#515151;}</style></defs><title>我</title><path class="cls-1" d="M26,84.86A5.4,5.4,0,0,0,28.45,78a51.76,51.76,0,0,1-3.7-19.32c.16-26.71,20.72-48.32,46-48.15s45.63,22,45.52,48.72-20.72,48.32-46,48.15a5.25,5.25,0,0,0-.06,10.46c22.1.11,41.29-13.5,50.28-33.39,9.31-.63,16.71-8.75,16.76-18.82a18.89,18.89,0,0,0-12.32-18.12C120,20.58,97.65.23,70.85.05S21.36,20.12,16.24,47.17C8.09,48.89,2,56.49,1.91,65.64c0,10.47,7.88,19,17.76,19a10.12,10.12,0,0,0,1.85-.11,4.41,4.41,0,0,0,4.44.29M40.13,73.19a29.41,29.41,0,0,0,7.3,8.41,35.83,35.83,0,0,0,23,8.06,35.57,35.57,0,0,0,23.1-7.78,30,30,0,0,0,7.4-8.35,5.45,5.45,0,0,0-1.64-7.14,4.62,4.62,0,0,0-6.61,1.77,21.18,21.18,0,0,1-4.86,5.32,26.41,26.41,0,0,1-17.29,5.71A26.77,26.77,0,0,1,53.3,73.3a20.53,20.53,0,0,1-4.81-5.37A4.63,4.63,0,0,0,41.88,66a5.44,5.44,0,0,0-1.75,7.15M64.4,128l9.67.06c6.66,0,12.11-5.78,12.16-13S80.89,102,74.23,102l-9.67,0c-6.66-.06-12.11,5.77-12.16,13S57.74,128,64.4,128"/></svg>