<?xml version="1.0" standalone="no"?><!DOCTYPE svg PUBLIC "-//W3C//DTD SVG 1.1//EN" "http://www.w3.org/Graphics/SVG/1.1/DTD/svg11.dtd"><svg class="icon" width="64px" height="64.00px" viewBox="0 0 1024 1024" version="1.1" xmlns="http://www.w3.org/2000/svg"><path d="M883.2 916.78H136.18c-6.45 0-11.41-4.96-11.41-11.41V371.64c0-6.45 4.96-11.41 11.41-11.41H882.7c6.45 0 11.41 4.96 11.41 11.41v534.22c0 5.96-4.96 10.92-10.91 10.92z" fill="#ff52a1" /><path d="M883.2 916.78H136.18c-6.45 0-11.41-4.96-11.41-11.41V371.64c0-6.45 4.96-11.41 11.41-11.41H882.7c6.45 0 11.41 4.96 11.41 11.41v534.22c0 5.96-4.96 10.92-10.91 10.92z" fill="#ffccd2" /><path d="M877.24 936.12H142.13c-20.34 0-36.21-16.37-36.21-36.21V377.1c0-20.34 16.37-36.21 36.21-36.21h735.61c20.34 0 36.71 16.37 36.71 36.21v522.82c-0.5 20.33-16.87 36.2-37.21 36.2z m-732.63-38.68h730.15V379.58H144.61v517.86z" fill="#dd3059" /><path d="M437.76 366.68S191.73 289.3 305.33 168.77C408.5 59.14 527.55 278.39 513.16 366.68h-75.4z" fill="#ffe6f3" /><path d="M529.53 386.52h-94.74l-2.98-0.99c-1.49-0.5-37.2-11.91-76.39-32.74-55.06-29.76-87.3-63-96.72-99.21-8.43-33.23 2.48-65.97 32.24-98.21 34.72-36.71 76.88-46.13 118.05-25.3 76.39 37.7 134.92 169.14 123.01 240.08l-2.47 16.37z m-88.79-39.19h54.07c-1.49-59.03-49.6-155.75-103.17-182.04-25.8-12.9-49.6-6.95-72.42 17.36-20.34 21.82-28.27 42.16-22.82 61.51 13.39 50.1 106.15 90.28 144.34 103.17z" fill="#dd3059" /><path d="M498.78 359.24s87.8-355.65 257.44-208.33c143.35 124.01-157.74 210.81-157.74 210.81l-99.7-2.48z" fill="#ffe6f3" /><path d="M601.45 381.56l-127.48-3.47 5.95-23.32c1.99-8.93 55.06-218.75 164.68-253.97 40.67-12.9 82.84-0.99 125 35.72 36.21 31.75 51.09 64.98 43.65 98.71-8.43 39.18-47.13 75.89-114.58 108.63-47.62 23.32-92.26 36.21-94.25 36.71l-2.97 0.99z m-76.88-41.17l71.92 1.99c64.48-19.35 167.66-66.47 178.57-115.58 4.46-19.34-5.96-39.19-31.25-61.01-31.75-27.29-60.02-36.21-87.3-27.78-64.98 20.34-112.1 136.9-131.94 202.38z" fill="#dd3059" /><path d="M925.36 541.78H94.01c-6.45 0-11.41-4.96-11.41-11.41V371.64c0-6.45 4.96-11.41 11.41-11.41h831.35c6.45 0 11.41 4.96 11.41 11.41v159.23c0 5.95-5.45 10.91-11.41 10.91z" fill="#ffccd2" /><path d="M919.91 561.12H99.47c-20.34 0-36.21-16.37-36.21-36.21V377.1c0-20.34 16.37-36.21 36.21-36.21h819.94c20.34 0 36.21 16.37 36.21 36.21v147.82c0.5 19.84-15.87 36.2-35.71 36.2z m-817.46-38.69h814.98V379.58H102.45v142.85z" fill="#dd3059" /><path d="M438.26 541.78h143.35v375H438.26z" fill="#ffe6f3" /><path d="M435.78 540.29h143.35v63.99H435.78z" fill="#ffe6f3" /><path d="M600.96 936.12H418.42V521.94h182.05v414.18h0.49z m-143.35-38.68h104.17V561.62H457.61v335.82z" fill="#dd3059" /><path d="M438.26 360.23h143.35v181.55H438.26z" fill="#ffe6f3" /><path d="M600.96 561.12H418.42V340.89h182.05v220.24h0.49v-0.01z m-143.35-38.69h104.17V379.58H457.61v142.85z" fill="#dd3059" /></svg>