<svg id="图层_1" data-name="图层 1" xmlns="http://www.w3.org/2000/svg" viewBox="0 0 126.48 115.85"><defs><style>.cls-1{fill:#f96711;stroke:#f96711;stroke-width:3px;}.cls-1,.cls-2{stroke-miterlimit:10;}.cls-2{fill:none;stroke:#fff;stroke-linecap:round;stroke-width:5px;}</style></defs><title>4.26</title><path class="cls-1" d="M63.32,7.51H84a6.24,6.24,0,0,1,6.24,6.24V34.48a27,27,0,0,1-27,27h0a27,27,0,0,1-27-27v0A27,27,0,0,1,63.32,7.51Z"/><path class="cls-1" d="M46.58,69.92H80.06a29.31,29.31,0,0,1,29.31,29.31v0a9.15,9.15,0,0,1-9.15,9.15H26.41a9.15,9.15,0,0,1-9.15-9.15v0A29.31,29.31,0,0,1,46.58,69.92Z"/><path class="cls-2" d="M53,43.69a12.49,12.49,0,0,0,12.54,6.48c5.69-.87,8.45-5.79,8.77-6.38"/></svg>