<svg id="图层_1" data-name="图层 1" xmlns="http://www.w3.org/2000/svg" viewBox="0 0 126.48 115.85"><defs><style>.cls-1,.cls-2{fill:none;stroke:#333;stroke-miterlimit:10;stroke-width:7px;}.cls-2{stroke-linecap:round;}</style></defs><title>4.26</title><path class="cls-1" d="M62.9,8.83H83.63a6.24,6.24,0,0,1,6.24,6.24V35.8a27,27,0,0,1-27,27h0a27,27,0,0,1-27-27v0a27,27,0,0,1,27-27Z"/><path class="cls-1" d="M46.16,71.24H79.64A29.31,29.31,0,0,1,109,100.56v0a9.15,9.15,0,0,1-9.15,9.15H26a9.15,9.15,0,0,1-9.15-9.15v0A29.31,29.31,0,0,1,46.16,71.24Z"/><path class="cls-2" d="M52.58,44.59a12.47,12.47,0,0,0,12.55,6.47c5.68-.86,8.44-5.79,8.76-6.38"/></svg>