<svg id="图层_1" data-name="图层 1" xmlns="http://www.w3.org/2000/svg" viewBox="0 0 137.8 137.8"><defs><style>.cls-1{fill:#515151;}</style></defs><title>0</title><path class="cls-1" d="M68.9,54.3A22.7,22.7,0,1,1,91.6,31.6,22.72,22.72,0,0,1,68.9,54.3Zm0-35.4A12.7,12.7,0,1,0,81.6,31.6,12.72,12.72,0,0,0,68.9,18.9Z"/><path class="cls-1" d="M69,120.8a5,5,0,0,1-5-5l-.1-63.5a5,5,0,0,1,5-5h0a5,5,0,0,1,5,5l.1,63.5a5,5,0,0,1-5,5Z"/><path class="cls-1" d="M92,67.3H46a5,5,0,0,1,0-10H92a5,5,0,0,1,0,10Z"/><path class="cls-1" d="M69.1,120.8c-27.79,0-50.4-18.08-50.4-40.3a5,5,0,0,1,10,0c0,16.71,18.12,30.3,40.4,30.3s40.4-13.59,40.4-30.3a5,5,0,0,1,10,0C119.5,102.72,96.89,120.8,69.1,120.8Z"/><path class="cls-1" d="M35.2,92.4a5,5,0,0,1-3.54-1.46l-7.31-7.32-7.11,7.12a5,5,0,0,1-7.08-7.07l8-8a8.84,8.84,0,0,1,6.38-2.59,8.48,8.48,0,0,1,6,2.63l8.16,8.16A5,5,0,0,1,35.2,92.4Z"/><path class="cls-1" d="M124.2,92.1a5,5,0,0,1-3.53-1.46l-7.32-7.32-7.11,7.12a5,5,0,0,1-7.07-7.07l8-8a8.83,8.83,0,0,1,6.37-2.59,8.48,8.48,0,0,1,6,2.63l8.16,8.15a5,5,0,0,1-3.54,8.54Z"/></svg>