<svg id="图层_1" data-name="图层 1" xmlns="http://www.w3.org/2000/svg" xmlns:xlink="http://www.w3.org/1999/xlink" viewBox="0 0 277.85 277.85"><defs><style>.cls-1{fill:#a35d41;}.cls-2{fill:#f5cfad;opacity:0.5;}.cls-3{fill:#fec300;}.cls-4{fill:#d26e3d;}.cls-5{fill:#fcaf11;}.cls-6{fill:#f68131;}.cls-7{fill:none;stroke:#f7e34a;stroke-miterlimit:10;stroke-width:3px;opacity:0.7;}</style></defs><title>4.26</title><path class="cls-1" d="M170.61,107.35c-1.35-1.3-2.76-2.63-2.87-2.79-.36-.55-1.14-.29-1.16-.27a5.24,5.24,0,0,1-2.44,0s0,0,0,0a12.38,12.38,0,0,1-3.47-3c-.61-.67-.75-.78-.89-.81-.31-.06-1.11.52-1.38.91-.16.2-.21.36-.12.51a3.49,3.49,0,0,0,.25.38c.17.23.4.59.65,1-1.33,4.25-6.13,6.17-6.89,6.45a11.7,11.7,0,0,1-1.12-1.12c-.22-.25-.31-.36-.41-.39-.33-.12-1.16.56-1.43.9s-.22.56-.13.67l.06.07a12.66,12.66,0,0,0,1.55,1.83l.29.34c1.71,2.49,1.51,3.29,1.06,5a1.25,1.25,0,0,0,.32,1.15,18.34,18.34,0,0,1,4.9,7.3,1.08,1.08,0,0,0,1,.75c2.35.17,6.48-3,9.22-5.14l.4-.31.36-.32c2.59-2.23,5.9-7.42,6.5-8.42a.61.61,0,0,0-.09-.74c-.61-.67-2.47-2.42-4.12-4Zm-14,.27a9.38,9.38,0,0,0,2.74-3.83,6.88,6.88,0,0,1,1,3.32v0a4.5,4.5,0,0,1-2.16,3.32,5.62,5.62,0,0,1-4.41.27,5.3,5.3,0,0,1-1.19-.69,15.44,15.44,0,0,0,4-2.43ZM174.48,112c-.94,1.59-4.4,6.79-6.77,8.62l-.4.31c-2.53,2-6.75,5.2-9,5.06a.78.78,0,0,1-.66-.51,19.07,19.07,0,0,0-5-7.45.82.82,0,0,1-.23-.77c.5-1.93.63-2.82-1.11-5.35l-.33-.38a19.93,19.93,0,0,1-1.57-1.82l0,0s0-.06.11-.21a2.82,2.82,0,0,1,1-.75,2.09,2.09,0,0,0,.26.26,8.15,8.15,0,0,0,2.81,2.16,5.79,5.79,0,0,0,4.74-.3,4.66,4.66,0,0,0,2.35-3.59v-.12c.09-2-1.34-4.1-1.94-5a1.94,1.94,0,0,1-.18-.25c0-.2.84-.84,1.09-.9.09.07.37.39.67.69.91,1,2.41,2.61,3.62,3.06,0,0,.06,0,.1,0a5.79,5.79,0,0,0,2.66,0s.52-.18.72.13,1.13,1.15,2.91,2.86c1.65,1.56,3.51,3.31,4.12,4a.25.25,0,0,1,0,.28Z"/><path class="cls-1" d="M159.29,114.26a.65.65,0,0,0-.2,0,.48.48,0,0,0-.17.11,1.82,1.82,0,0,0-.28.28c-.08.11-.19.25-.28.4l-.28.46a2.21,2.21,0,0,0-.11.21l-.1.2a5.28,5.28,0,0,0-.29,1,6.43,6.43,0,0,0-.08,1,3,3,0,0,0,.6,2,.8.8,0,0,0,.56.26,1.82,1.82,0,0,0,.69-.11,2,2,0,0,0,.57-.34,3.32,3.32,0,0,0,.64-.86.69.69,0,0,0,.07-.13l.12-.29a1.67,1.67,0,0,1,.21-.41l0,0,.1.21a.1.1,0,0,1,0,.08.31.31,0,0,0,0,.11c0,.08.07.12.1.2l.11.13a1.1,1.1,0,0,0,.25.2c.08.05.16,0,.24-.06a.22.22,0,0,0,.09-.12.22.22,0,0,0,0-.13.23.23,0,0,0,0-.14.19.19,0,0,0-.07-.13h0a.15.15,0,0,1-.06,0s0,0-.05,0l0,0a2.06,2.06,0,0,1-.27-.48c0-.11-.08-.23-.13-.33a1.68,1.68,0,0,1-.1-.29s0-.06-.05-.15,0-.18-.1-.32a3.59,3.59,0,0,0-.11-.43s-.11-.05-.26,0a.52.52,0,0,0-.28.06c-.15.13-.2.21-.14.27a.32.32,0,0,0,.1.07.23.23,0,0,1,.09.06s0,.05,0,.09a.9.9,0,0,1,0,.16.77.77,0,0,1,0,.22c0,.08,0,.14,0,.22a.48.48,0,0,1,0,.18,1.84,1.84,0,0,1-.15.43,2.2,2.2,0,0,1-.21.44c-.1.16-.17.29-.25.4a1.78,1.78,0,0,1-.29.32,1.52,1.52,0,0,1-.38.26.66.66,0,0,1-.36,0,.4.4,0,0,1-.31-.14,2.09,2.09,0,0,1-.34-.53,1.67,1.67,0,0,1-.18-.59,4.43,4.43,0,0,1,0-.64,2.39,2.39,0,0,1,.06-.66,5.44,5.44,0,0,1,.15-.61c.05-.2.15-.39.22-.6A2.63,2.63,0,0,1,159,115s.09-.08.13-.07a.23.23,0,0,1,.14,0,.66.66,0,0,1,.14,0l.12,0a.35.35,0,0,0,.12-.22.31.31,0,0,0-.09-.22.32.32,0,0,0-.15-.13s-.06,0-.14,0Zm1.57-.65a1.24,1.24,0,0,0,.24-.16.44.44,0,0,0,.14-.31.45.45,0,0,0-.14-.33c-.07-.09-.13-.11-.19-.1a.81.81,0,0,0-.25.14.45.45,0,0,0-.07.14.87.87,0,0,0,0,.32.62.62,0,0,0,.13.27c0,.06.09.06.17,0Zm4.9-2.41c-.06,0-.12.07-.21.11l-.15.12a1.14,1.14,0,0,0-.22.39,1.17,1.17,0,0,0-.14.57,2,2,0,0,0,0,.76l.05.18c0,.07,0,.11,0,.13s0,.08,0,.12,0,.08,0,.12,0,.1,0,.16a1,1,0,0,0,.06.21,1.46,1.46,0,0,0-.2-.28c-.05-.06-.09-.14-.14-.21s-.09-.14-.15-.21a3.09,3.09,0,0,0-.16-.27,2.05,2.05,0,0,0-.08-.19.55.55,0,0,0-.11-.16s-.07-.13-.11-.17l-.11-.13s0,0-.06,0,0,0-.08,0H164c-.06.06-.09.11-.07.18a.37.37,0,0,0,.08.22,1.28,1.28,0,0,0,.16.27c0,.05.07.13.11.17s-.06,0-.08,0h0s0,0,0,0,0,0,0,0l0,0a3,3,0,0,1,0,.3l0,.75a3.38,3.38,0,0,1-.07.4,1.82,1.82,0,0,1-.09.37,1.6,1.6,0,0,1-.11.35,1,1,0,0,1-.29.48c-.11.1-.27.08-.46-.05a2.52,2.52,0,0,1-.49-.43c-.05-.07-.12-.15-.2-.28a3.13,3.13,0,0,1-.25-.38c0-.08-.09-.14-.12-.23s-.09-.14-.15-.21-.13-.11-.17-.07a.44.44,0,0,0-.16.29.83.83,0,0,0,0,.32.69.69,0,0,0,.11.17c.06.06.09.14.16.23a2.87,2.87,0,0,0,.32.4,2.81,2.81,0,0,0,.54.5,1.4,1.4,0,0,0,.62.29.76.76,0,0,0,.62-.2,1.33,1.33,0,0,0,.37-.77l.1-.54a2.85,2.85,0,0,0,0-.51,3.16,3.16,0,0,0,0-.44c0-.15,0-.26,0-.41s0-.2,0-.26c.07.09.12.19.2.28a1.38,1.38,0,0,0,.22.29l.12.19a.39.39,0,0,1,.11.17l.28.32c.22.22.38.27.49.17l.06,0,.07-.1s0-.07.06-.09a.05.05,0,0,0,0-.08.33.33,0,0,0-.07-.13s0-.08-.07-.12a1.66,1.66,0,0,1-.12-.31,1.24,1.24,0,0,1-.1-.29,3.53,3.53,0,0,1-.17-1.23,1.58,1.58,0,0,1,.47-1l.22-.18s0,0,0-.06,0,0,0-.06a.19.19,0,0,1,0-.09l0,0s-.07,0-.15-.05c0,.14-.09.15-.16.21Zm3.36-1.9a.15.15,0,0,0,0,.1v.12a.54.54,0,0,0,0,.18,2.25,2.25,0,0,0,0,.26,3.08,3.08,0,0,1,0,.42,2.68,2.68,0,0,1-.05.42,1.34,1.34,0,0,1-.12.37,1,1,0,0,1-.22.3.56.56,0,0,1-.26.14.49.49,0,0,1-.27,0,.76.76,0,0,1-.29-.16,1.24,1.24,0,0,1-.28-.28,1.7,1.7,0,0,1-.26-.34c-.07-.12-.18-.25-.27-.4s-.16-.27-.25-.42l-.21-.37c0-.06-.09-.15-.16-.31s-.18-.34-.32-.59c0,0-.07-.12-.11-.16a.69.69,0,0,0-.11-.17.23.23,0,0,0-.26,0,.33.33,0,0,0-.09.11.7.7,0,0,1,0,.14.66.66,0,0,1,0,.14.78.78,0,0,1,.05.14.36.36,0,0,1,.06.11s0,.08.07.12l.12.19c0,.05.06.11.09.15a1.71,1.71,0,0,1,.11.17.92.92,0,0,1,.12.23c.08.12.16.27.25.42l.27.44c.09.14.2.27.29.42a3,3,0,0,0,.3.38,1.62,1.62,0,0,0,.45.39,1.06,1.06,0,0,0,.43.15.76.76,0,0,0,.42,0,1,1,0,0,0,.35-.19,1.13,1.13,0,0,0,.22-.27,1.62,1.62,0,0,0,.17-.32c0-.12,0-.24.1-.36a2.21,2.21,0,0,0,0-.33l0-.48c0-.08,0-.14,0-.22s0-.14,0-.17a1,1,0,0,0-.17-.45c-.1,0-.14,0-.16,0Z"/><path class="cls-2" d="M237.81,171.32a21.72,21.72,0,0,1-7.86,5.36,40,40,0,0,1-10.55,36.17,38.45,38.45,0,0,1-27.52,11.59H116.32c-21.49,0-38.91-17.71-38.91-39.54a40.37,40.37,0,0,1,1.29-10.14H74.83c-21.49,0-38.92-17.7-38.92-39.55a39.71,39.71,0,0,1,11.4-27.95A38.57,38.57,0,0,1,72.64,95.74,40,40,0,0,1,82.89,58.2,38.44,38.44,0,0,1,110.4,46.62H186c21.49,0,38.92,17.7,38.92,39.54a39.7,39.7,0,0,1-11.4,28,38.64,38.64,0,0,1-13.52,9,39.71,39.71,0,0,1,1.73,8.78h20.76c12,0,21.72,10.35,21.72,23.12A23.85,23.85,0,0,1,237.81,171.32Z"/><path class="cls-3" d="M76.91,155.12l-6.24,2.43c-3.29,1.27-4.89,8.85-5.22,12.37l-.76,8.14a.65.65,0,0,1-1.25.18l-3.14-7.61c-1.37-3.32-5.22-10.11-8.8-10.31L44.79,160a.64.64,0,0,1-.18-1.25l5.93-2.08a9.32,9.32,0,0,0,6.2-7.86l.86-8.59a.65.65,0,0,1,1.25-.18l3.22,8a9.33,9.33,0,0,0,8.6,5.84l6,0A.65.65,0,0,1,76.91,155.12Z"/><path class="cls-4" d="M215.15,78.64l-3.8.49c-2,.26-3.92,4.26-4.59,6.16l-1.54,4.42a.37.37,0,0,1-.71-.06L203.8,85c-.31-2-1.51-6.33-3.48-6.93l-3.67-1.12a.37.37,0,0,1,.07-.72l3.57-.34a5.35,5.35,0,0,0,4.53-3.53l1.65-4.65a.37.37,0,0,1,.72.07l.69,4.89a5.34,5.34,0,0,0,4,4.42l3.34.85A.37.37,0,0,1,215.15,78.64Z"/><path class="cls-5" d="M224.7,170.31l-3.8.5c-2,.26-3.93,4.25-4.59,6.16l-1.54,4.42a.37.37,0,0,1-.72-.07l-.7-4.66c-.31-2-1.52-6.34-3.48-6.94l-3.68-1.12a.37.37,0,0,1,.08-.72l3.57-.34a5.34,5.34,0,0,0,4.52-3.52l1.66-4.66a.37.37,0,0,1,.71.07l.7,4.9a5.35,5.35,0,0,0,4,4.42l3.33.84A.37.37,0,0,1,224.7,170.31Z"/><path class="cls-5" d="M106,54.06l-3.8.49c-2,.26-3.93,4.25-4.59,6.16L96,65.13a.37.37,0,0,1-.72-.07l-.7-4.66c-.31-2-1.52-6.33-3.48-6.93l-3.68-1.13a.37.37,0,0,1,.07-.72l3.58-.34a5.35,5.35,0,0,0,4.52-3.52l1.66-4.66a.37.37,0,0,1,.71.08l.7,4.89a5.34,5.34,0,0,0,4,4.42l3.34.84A.37.37,0,0,1,106,54.06Z"/><image width="128" height="128" transform="translate(201.88 194.37) scale(0.21 0.21)" xlink:href="../../../Downloads/%E7%A1%AE%E8%AE%A4%20%E5%AF%B9%E5%8B%BE%20%E5%8B%BE%E5%8F%B7.png"/><path class="cls-6" d="M120.38,177.74a10.18,10.18,0,0,1,3.92.76,10.31,10.31,0,0,1,3.26,2.12,9.33,9.33,0,0,1,2.18,3.21,10.49,10.49,0,0,1,0,7.84,9.33,9.33,0,0,1-2.18,3.21,11.19,11.19,0,0,1-3.26,2.17,9.53,9.53,0,0,1-3.92.82,9.37,9.37,0,0,1-4-.82,11.36,11.36,0,0,1-3.21-2.17,9.33,9.33,0,0,1-2.18-3.21,10.49,10.49,0,0,1,0-7.84,9.33,9.33,0,0,1,2.18-3.21,10.43,10.43,0,0,1,3.21-2.12A10,10,0,0,1,120.38,177.74Zm45.27.21a10.55,10.55,0,0,1,4,.77,9.48,9.48,0,0,1,3.27,2.12,10.57,10.57,0,0,1,2.17,3.21,9.76,9.76,0,0,1,0,7.83,10.11,10.11,0,0,1-5.44,5.39,10,10,0,0,1-4,.82,9.7,9.7,0,0,1-3.92-.82,10.27,10.27,0,0,1-5.38-5.39,9.76,9.76,0,0,1,0-7.83,10.57,10.57,0,0,1,2.17-3.21,9.61,9.61,0,0,1,3.21-2.12A10.18,10.18,0,0,1,165.65,178Zm18.28-61.81a11.21,11.21,0,0,1,4.74.82,5.35,5.35,0,0,1,2.39,2,4.56,4.56,0,0,1,.65,2.56,8.17,8.17,0,0,1-.38,2.34c-.22.65-.67,2-1.36,4s-1.47,4.26-2.34,6.69-1.72,4.84-2.56,7.24-1.46,4.28-1.9,5.65q-1.41,4.36-3.59,6a8.41,8.41,0,0,1-5.33,1.69H117.12l1.63,9.79h54.84q5.24,0,5.23,4.47a6.68,6.68,0,0,1-1,3.75c-.69,1.05-2.05,1.58-4.08,1.58h-57a6.47,6.47,0,0,1-3.65-1,8.19,8.19,0,0,1-2.44-2.56,15.12,15.12,0,0,1-1.58-3.43,31.38,31.38,0,0,1-.93-3.48c-.07-.43-.27-1.49-.6-3.15s-.72-3.76-1.19-6.26l-1.58-8.38c-.58-3.08-1.16-6.19-1.74-9.3q-2.07-11-4.68-24.49H90.13a4.36,4.36,0,0,1-2.72-.82,7,7,0,0,1-1.8-2,7.63,7.63,0,0,1-1-2.45,11.91,11.91,0,0,1-.27-2.4,4.76,4.76,0,0,1,1.47-3.59,5.49,5.49,0,0,1,4-1.41h11a7.77,7.77,0,0,1,3.48.65,5.91,5.91,0,0,1,2.07,1.63,6.26,6.26,0,0,1,1.09,2.07c.22.73.4,1.34.54,1.85a24.39,24.39,0,0,1,.44,2.45c.14,1,.29,2.12.43,3.21.22,1.3.44,2.68.66,4.13Z"/><line class="cls-7" x1="105.13" y1="129.88" x2="185.27" y2="129.88"/><line class="cls-7" x1="105.13" y1="145.22" x2="182.2" y2="145.22"/><line class="cls-7" x1="121.12" y1="152.69" x2="120.42" y2="116.81"/><line class="cls-7" x1="144.42" y1="152.69" x2="143.73" y2="116.81"/><line class="cls-7" x1="167.73" y1="152.69" x2="167.03" y2="116.81"/><path class="cls-1" d="M140.83,89.77c-.52-1.8-1.08-3.65-1.09-3.85,0-.65-.84-.81-.87-.81a5.25,5.25,0,0,1-2.13-1.2,0,0,0,0,1,0,0,12.13,12.13,0,0,1-1.52-4.31c-.2-.88-.26-1-.36-1.14a2.36,2.36,0,0,0-1.66.09c-.23.1-.36.21-.35.38a2.35,2.35,0,0,0,0,.46c0,.28.05.71.05,1.19-3.27,3-8.39,2.28-9.19,2.14a12.9,12.9,0,0,1-.41-1.53c-.06-.33-.09-.47-.16-.54-.23-.28-1.28-.1-1.68.06s-.48.38-.45.52v.08a14.23,14.23,0,0,0,.43,2.37l.08.44c.24,3-.34,3.6-1.59,4.88a1.27,1.27,0,0,0-.3,1.15,18.42,18.42,0,0,1,.6,8.77,1.06,1.06,0,0,0,.48,1.14c2,1.33,7.13.62,10.55.16l.51-.07.47-.09c3.35-.64,8.82-3.47,9.83-4a.62.62,0,0,0,.3-.69c-.2-.89-.93-3.33-1.55-5.54ZM128.57,83a9.51,9.51,0,0,0,4.29-2,6.86,6.86,0,0,1-.79,3.37l0,0a4.53,4.53,0,0,1-3.53,1.8,5.58,5.58,0,0,1-3.95-2,5,5,0,0,1-.69-1.19,15.23,15.23,0,0,0,4.7-.09Zm13.31,12.68c-1.61.91-7.2,3.68-10.17,4.08l-.51.07c-3.16.44-8.44,1.13-10.28-.09a.8.8,0,0,1-.32-.78A19.13,19.13,0,0,0,120,90a.82.82,0,0,1,.19-.78c1.4-1.42,2-2.13,1.71-5.19l-.1-.5a23.25,23.25,0,0,1-.45-2.36v0s0-.06.21-.13a2.67,2.67,0,0,1,1.23-.15,2.89,2.89,0,0,0,.1.35,8.09,8.09,0,0,0,1.35,3.28,5.87,5.87,0,0,0,4.26,2.12,4.65,4.65,0,0,0,3.82-2l.07-.1c1.06-1.67.89-4.22.82-5.3,0-.14,0-.31,0-.31a2.61,2.61,0,0,1,1.39-.24c.05.11.13.52.24.93.31,1.3.78,3.48,1.61,4.47,0,0,0,0,.07.07a5.91,5.91,0,0,0,2.32,1.31s.54.1.55.47.41,1.56,1.1,3.93c.65,2.17,1.38,4.62,1.55,5.54a.23.23,0,0,1-.12.25Z"/><path class="cls-1" d="M127.58,90.1a.6.6,0,0,0-.19-.08.35.35,0,0,0-.2,0,1.43,1.43,0,0,0-.38.1c-.14.06-.3.12-.45.2l-.47.27a1.3,1.3,0,0,0-.21.12l-.18.12a5.19,5.19,0,0,0-.75.72,5.85,5.85,0,0,0-.58.86,3,3,0,0,0-.5,2A.81.81,0,0,0,124,95a1.66,1.66,0,0,0,.65.25,2.07,2.07,0,0,0,.66,0,3,3,0,0,0,1-.42l.13-.08.25-.2a1.57,1.57,0,0,1,.38-.24v0s0,.12,0,.24a.15.15,0,0,1,0,.09.31.31,0,0,0,0,.11c0,.09,0,.15,0,.23l0,.17a1.17,1.17,0,0,0,.11.3c0,.07.13.08.25.06a.24.24,0,0,0,.13,0,.29.29,0,0,0,.09-.11.27.27,0,0,0,.07-.12.38.38,0,0,0,0-.15l0,0a.11.11,0,0,1,0,0s0,0,0,0v0a1.45,1.45,0,0,1,0-.55c0-.12,0-.24,0-.36s0-.21.06-.3,0-.06,0-.14,0-.19.08-.34a3.92,3.92,0,0,0,.12-.42c0-.06-.08-.1-.21-.16s-.22-.11-.27-.09c-.2,0-.27.08-.26.16a.31.31,0,0,0,.05.11s0,.07,0,.1a.1.1,0,0,1,0,.09c0,.06,0,.09-.06.15a.75.75,0,0,1-.1.2,1.18,1.18,0,0,0-.11.19.58.58,0,0,1-.12.14,1.93,1.93,0,0,1-.34.29,2,2,0,0,1-.41.28,4.57,4.57,0,0,1-.42.23,1.87,1.87,0,0,1-.4.13,1.92,1.92,0,0,1-.46,0,.58.58,0,0,1-.34-.13.41.41,0,0,1-.2-.28,2.64,2.64,0,0,1,0-.63,1.65,1.65,0,0,1,.14-.6c.08-.19.19-.38.29-.57a2.5,2.5,0,0,1,.39-.54c.14-.17.29-.31.43-.45s.32-.27.5-.42a2.63,2.63,0,0,1,.92-.43.22.22,0,0,1,.14,0l.13.06.13.06a.54.54,0,0,0,.12,0,.31.31,0,0,0,.2-.13.33.33,0,0,0,0-.24.73.73,0,0,0-.07-.19.3.3,0,0,0-.1-.09Zm1.68.22a1.19,1.19,0,0,0,.28,0,.42.42,0,0,0,.28-.2.48.48,0,0,0,.05-.35c0-.12-.06-.17-.12-.18a.56.56,0,0,0-.29,0s-.08,0-.13.08a.93.93,0,0,0-.18.26.53.53,0,0,0,0,.3c0,.06,0,.1.14.11Zm5.45.36h-.24l-.19,0a1,1,0,0,0-.39.22,1.27,1.27,0,0,0-.41.42,2.12,2.12,0,0,0-.36.67l-.05.19c0,.06,0,.09,0,.12s0,.09,0,.12,0,.09,0,.12l-.06.16a1,1,0,0,0,0,.21,1.37,1.37,0,0,0,0-.34c0-.09,0-.17,0-.26s0-.17,0-.25,0-.2,0-.32,0-.11,0-.2a.32.32,0,0,0,0-.2c0-.06,0-.15,0-.2l0-.17s0,0,0,0,0,0-.06,0l-.07,0a.08.08,0,0,1-.06,0,.17.17,0,0,0-.15.11.42.42,0,0,0,0,.24,1.07,1.07,0,0,0,0,.31c0,.06,0,.15,0,.2s0,0-.06,0h0s0,0,0,0a0,0,0,0,1,0,0v0c0,.06-.08.16-.15.26l-.43.63a3,3,0,0,1-.25.3,1.82,1.82,0,0,1-.27.28,1.6,1.6,0,0,1-.26.26,1.09,1.09,0,0,1-.5.26c-.14,0-.27-.06-.37-.27a2.36,2.36,0,0,1-.2-.62,1.44,1.44,0,0,1,0-.34,2.12,2.12,0,0,1,0-.45c0-.09,0-.18,0-.26a2.46,2.46,0,0,1,0-.26q0-.16-.12-.15a.47.47,0,0,0-.28.17.73.73,0,0,0-.15.29.47.47,0,0,0,0,.2c0,.08,0,.17,0,.28a2.27,2.27,0,0,0,.07.5,2.68,2.68,0,0,0,.22.71,1.37,1.37,0,0,0,.39.56.72.72,0,0,0,.63.13,1.28,1.28,0,0,0,.71-.48l.36-.41a3.23,3.23,0,0,0,.29-.43,2.48,2.48,0,0,0,.21-.39c.06-.12.13-.22.19-.35s.08-.19.1-.25c0,.11,0,.23,0,.34a1.3,1.3,0,0,0,.05.36c0,.09,0,.18,0,.23a.45.45,0,0,1,0,.2l.08.42c.09.3.2.42.34.39H133s.08-.05.1-.05.08,0,.11,0a.06.06,0,0,0,0-.07.23.23,0,0,0,0-.14c0-.06,0-.09,0-.14a1,1,0,0,1,.05-.33,1.07,1.07,0,0,1,.06-.3,3.59,3.59,0,0,1,.46-1.15,1.6,1.6,0,0,1,.92-.64l.28,0,0,0s0,0,0-.06,0-.06,0-.09V90.7s0-.07-.11-.12c-.09.11-.15.09-.23.1Zm3.86,0a.18.18,0,0,0-.08.07l-.06.1a.48.48,0,0,0-.09.16,1.57,1.57,0,0,0-.13.23c-.07.1-.13.22-.22.35a1.87,1.87,0,0,1-.25.34,1,1,0,0,1-.29.26.83.83,0,0,1-.35.15.7.7,0,0,1-.29,0,.73.73,0,0,1-.23-.16,1.1,1.1,0,0,1-.17-.28,2.11,2.11,0,0,1-.1-.38,2,2,0,0,1-.05-.43c0-.14,0-.31,0-.48v-.92c0-.06,0-.17,0-.35s0-.37,0-.66a1.34,1.34,0,0,0,0-.2,1.48,1.48,0,0,0,0-.2.25.25,0,0,0-.24-.1.35.35,0,0,0-.14.06l-.09.1s0,.1-.06.13a.8.8,0,0,0,0,.15.27.27,0,0,1,0,.12s0,.08,0,.14a1.93,1.93,0,0,1,0,.23s0,.11,0,.17a1.56,1.56,0,0,0,0,.2,1.25,1.25,0,0,1,0,.26c0,.14,0,.31,0,.49v.51c0,.17,0,.34,0,.51s0,.34.06.48a1.93,1.93,0,0,0,.2.56,1.07,1.07,0,0,0,.3.35.8.8,0,0,0,.38.19,1.08,1.08,0,0,0,.4,0,1.24,1.24,0,0,0,.32-.12,1.17,1.17,0,0,0,.31-.2c.1-.07.17-.17.27-.25s.16-.18.2-.27l.27-.4c.05-.06.06-.12.11-.19s.06-.13.06-.15a1.35,1.35,0,0,0,.08-.48c-.07-.07-.11-.1-.13-.09Z"/><path class="cls-1" d="M174.69,64.9c.58-2.12,1.15-4.32,1.26-4.52.36-.68-.35-1.33-.38-1.35a6.17,6.17,0,0,1-1.41-2.5,0,0,0,0,1,0,0c-.19-1.38.61-3.81,1.11-5.25.33-1,.37-1.2.33-1.36-.12-.36-1.17-.86-1.71-.92-.31,0-.5,0-.6.17a2.88,2.88,0,0,0-.24.47c-.15.3-.39.74-.67,1.24-5.13,1-9.81-2.83-10.53-3.46a14.44,14.44,0,0,1,.52-1.78c.14-.37.2-.53.17-.65-.06-.41-1.23-.88-1.73-1s-.7.09-.76.25l0,.09A14.66,14.66,0,0,0,159,47l-.18.5c-1.6,3.15-2.54,3.4-4.58,3.92a1.46,1.46,0,0,0-1,1,21.67,21.67,0,0,1-4.75,9.17,1.25,1.25,0,0,0-.22,1.43c1.15,2.52,6.78,5,10.49,6.59l.55.24.53.2c3.76,1.4,11,1.88,12.33,1.93a.73.73,0,0,0,.72-.51c.34-1,1.1-3.9,1.81-6.5Zm-8.17-14.25a11.05,11.05,0,0,0,5.48.66,8,8,0,0,1-2.84,2.9l0,0a5.31,5.31,0,0,1-4.64-.35,6.54,6.54,0,0,1-2.76-4.38,5.82,5.82,0,0,1,0-1.62,17.91,17.91,0,0,0,4.77,2.77Zm5.62,20.83c-2.17-.06-9.47-.69-12.69-2.1l-.55-.24c-3.44-1.49-9.15-4-10.26-6.36a.93.93,0,0,1,.15-1,22.19,22.19,0,0,0,4.85-9.34,1,1,0,0,1,.68-.67c2.26-.57,3.25-.94,4.87-4.16l.21-.56a26,26,0,0,1,1-2.64l0-.06s0-.05.28,0A3.23,3.23,0,0,1,162,45a1.55,1.55,0,0,0-.12.41,9.72,9.72,0,0,0-.65,4.11,6.84,6.84,0,0,0,3,4.72,5.48,5.48,0,0,0,5,.38l.13-.06c2.08-1,3.46-3.7,4.05-4.82a3.49,3.49,0,0,1,.16-.33,3.09,3.09,0,0,1,1.54.61c0,.14-.19.6-.33,1.08-.48,1.48-1.33,4-1.11,5.46,0,0,0,.07,0,.11a6.94,6.94,0,0,0,1.53,2.73s.48.43.27.81S175,62,174.24,64.8c-.68,2.58-1.44,5.48-1.82,6.5a.27.27,0,0,1-.28.18Z"/><path class="cls-1" d="M161.2,57.16a.78.78,0,0,0-.14-.2.58.58,0,0,0-.21-.11,2,2,0,0,0-.44-.13,4.61,4.61,0,0,0-.58-.07l-.63,0a1.31,1.31,0,0,0-.28,0h-.25a6.54,6.54,0,0,0-1.19.26,8.27,8.27,0,0,0-1.11.51,3.54,3.54,0,0,0-1.75,1.76.92.92,0,0,0,0,.72,1.86,1.86,0,0,0,.5.65,2.2,2.2,0,0,0,.67.39,3.6,3.6,0,0,0,1.24.18.61.61,0,0,0,.18,0l.37,0a1.84,1.84,0,0,1,.53,0v0s-.08.11-.15.23,0,.06-.07.08-.05,0-.08.11-.09.14-.15.23l-.07.18a1.33,1.33,0,0,0-.07.37c0,.1.08.17.21.21a.22.22,0,0,0,.16,0,.43.43,0,0,0,.16-.05.37.37,0,0,0,.14-.09.24.24,0,0,0,.09-.14l0,0a.15.15,0,0,1,0-.08s0,0,0-.07l0-.06a1.84,1.84,0,0,1,.34-.55c.08-.11.19-.21.26-.32s.18-.19.24-.27.06-.05.12-.13.17-.15.29-.28.38-.36.38-.36,0-.15-.11-.28-.16-.24-.22-.26c-.22-.08-.32-.09-.36,0a.24.24,0,0,0,0,.13.41.41,0,0,1,0,.14.12.12,0,0,1-.06.08L159,60a.75.75,0,0,1-.22.13l-.22.13a.61.61,0,0,1-.21.06,1.72,1.72,0,0,1-.52.09,2.21,2.21,0,0,1-.58,0,3.26,3.26,0,0,1-.56,0,2.16,2.16,0,0,1-.49-.11,2.26,2.26,0,0,1-.47-.25.73.73,0,0,1-.26-.34.48.48,0,0,1,0-.4,2.93,2.93,0,0,1,.35-.65,2.1,2.1,0,0,1,.51-.52c.19-.14.42-.26.64-.39a2.62,2.62,0,0,1,.72-.3,6.77,6.77,0,0,1,.7-.2c.24-.05.49-.07.75-.11a3.28,3.28,0,0,1,1.19.12c.07,0,.13,0,.15.09a.63.63,0,0,1,.09.14c0,.05.07.1.09.14s.07.1.1.11a.34.34,0,0,0,.28,0,.39.39,0,0,0,.19-.21.64.64,0,0,0,.05-.23s0-.08-.05-.16Zm1.55,1.25a1.31,1.31,0,0,0,.3.14.46.46,0,0,0,.4,0,.52.52,0,0,0,.26-.32c0-.13,0-.2,0-.25a.66.66,0,0,0-.29-.18.52.52,0,0,0-.18,0,1.17,1.17,0,0,0-.34.16.64.64,0,0,0-.2.27c-.06.06,0,.14.06.21ZM168,62.09c-.06-.06-.15-.09-.23-.16l-.22-.08a1.24,1.24,0,0,0-.52,0,1.41,1.41,0,0,0-.67.17,2.65,2.65,0,0,0-.77.46l-.16.15c-.06.05-.1.07-.11.1s-.07.08-.11.1-.06.08-.11.1S165,63,165,63a1.12,1.12,0,0,0-.17.19,2.65,2.65,0,0,0,.17-.36c0-.1.1-.18.13-.27s.1-.18.14-.27.11-.21.19-.32.07-.11.14-.19a.61.61,0,0,0,.11-.21,1.39,1.39,0,0,0,.11-.21l.07-.18s0,0,0-.08,0,0,0-.08l0-.09a.11.11,0,0,1,0,0,.19.19,0,0,0-.22,0,.47.47,0,0,0-.19.22,1.08,1.08,0,0,0-.19.32c0,.06-.09.14-.11.2s0-.07,0-.08h0s0,0,0,0,0,0,0,0v0c-.08,0-.18.1-.31.16l-.81.37a3.72,3.72,0,0,1-.44.16,4.16,4.16,0,0,1-.44.12,3.52,3.52,0,0,1-.42.09,1.54,1.54,0,0,1-.66,0c-.15-.06-.23-.23-.2-.5a2.94,2.94,0,0,1,.17-.75,1.62,1.62,0,0,1,.17-.37,4.44,4.44,0,0,1,.25-.47c.06-.08.1-.17.16-.26s.1-.17.14-.26,0-.2,0-.22a.55.55,0,0,0-.38,0,1,1,0,0,0-.33.2.58.58,0,0,0-.11.21c0,.09-.1.17-.14.3a3,3,0,0,0-.24.54,3.3,3.3,0,0,0-.21.85,1.63,1.63,0,0,0,.06.8.86.86,0,0,0,.55.52,1.59,1.59,0,0,0,1,0l.61-.2a8.57,8.57,0,0,0,1-.51l.41-.24.25-.19c0,.12-.13.24-.17.36a2.3,2.3,0,0,0-.19.39,2.65,2.65,0,0,1-.12.24.71.71,0,0,1-.11.21l-.17.46c-.1.35-.06.54.09.6l.09,0h.14l.14,0a.07.07,0,0,0,.08,0,.24.24,0,0,0,.09-.15c0-.06.07-.08.09-.14a1.68,1.68,0,0,1,.25-.29,1.22,1.22,0,0,1,.24-.27,4.37,4.37,0,0,1,1.17-.87,1.83,1.83,0,0,1,1.31-.08l.31.11s0,0,.07,0,0,0,.05,0,0-.06.07-.08l0-.06c0-.06,0-.1,0-.19s-.21,0-.3,0Zm3.85,2.39s-.08,0-.12,0l-.13.06a.73.73,0,0,0-.18.11,1.49,1.49,0,0,0-.27.15c-.12.06-.26.15-.43.22a4.1,4.1,0,0,1-.46.19,1.31,1.31,0,0,1-.46.08,1,1,0,0,1-.43-.06.59.59,0,0,1-.43-.48,1.21,1.21,0,0,1,0-.38,3.14,3.14,0,0,1,.13-.45,2.31,2.31,0,0,1,.21-.45c.09-.15.16-.33.26-.51l.29-.49.26-.43c.06-.05.1-.18.24-.34s.24-.37.42-.66c0-.06.09-.14.11-.21s.08-.11.11-.2a.31.31,0,0,0-.19-.25.43.43,0,0,0-.17,0l-.16.05s-.09.07-.14.09a1.42,1.42,0,0,1-.12.13.26.26,0,0,1-.07.12c0,.06-.07.08-.09.14a2.67,2.67,0,0,0-.12.24c0,.06-.08.11-.11.17s-.07.11-.11.21a1.88,1.88,0,0,1-.16.25l-.29.5-.3.52c-.1.18-.17.36-.27.54a3.69,3.69,0,0,0-.23.51,2.39,2.39,0,0,0-.15.69,1.17,1.17,0,0,0,.09.53.85.85,0,0,0,.26.42,1.26,1.26,0,0,0,.41.25,1.69,1.69,0,0,0,.39.08,2.1,2.1,0,0,0,.43,0c.15,0,.28-.07.42-.09a2.77,2.77,0,0,0,.38-.14l.51-.24.22-.13c.06,0,.14-.09.15-.12a1.21,1.21,0,0,0,.37-.42c0-.12,0-.16-.07-.17Z"/></svg>