<svg id="图层_1" data-name="图层 1" xmlns="http://www.w3.org/2000/svg" xmlns:xlink="http://www.w3.org/1999/xlink" viewBox="0 0 277.85 277.85"><defs><style>.cls-1{fill:#f5cfad;opacity:0.5;}.cls-2,.cls-7{fill:#d26e3d;}.cls-2{opacity:0.7;}.cls-3{fill:#f8a459;}.cls-4{fill:#f68131;}.cls-5{fill:none;stroke-linecap:round;}.cls-5,.cls-9{stroke:#d26e3d;stroke-miterlimit:10;stroke-width:3px;}.cls-6{fill:#f2a703;}.cls-8{fill:#fcaf11;}.cls-9{fill:#f7b85f;}</style></defs><title>4.26</title><path class="cls-1" d="M237.81,164.32a21.72,21.72,0,0,1-7.86,5.36,40,40,0,0,1-10.55,36.17,38.45,38.45,0,0,1-27.52,11.59H116.32c-21.49,0-38.91-17.71-38.91-39.54a40.37,40.37,0,0,1,1.29-10.14H74.83c-21.49,0-38.92-17.7-38.92-39.55a39.71,39.71,0,0,1,11.4-27.95A38.57,38.57,0,0,1,72.64,88.74,40,40,0,0,1,82.89,51.2,38.44,38.44,0,0,1,110.4,39.62H186c21.49,0,38.92,17.7,38.92,39.54a39.7,39.7,0,0,1-11.4,28,38.64,38.64,0,0,1-13.52,9,39.71,39.71,0,0,1,1.73,8.78h20.76c12,0,21.72,10.35,21.72,23.12A23.85,23.85,0,0,1,237.81,164.32Z"/><path class="cls-2" d="M237.46,129.26H212.58a2.2,2.2,0,1,1,0-4.29h24.88a2.21,2.21,0,1,1,0,4.29Z"/><path class="cls-3" d="M178.86,76.9H167.78c-.74-3.79-3.72-6.71-7.2-6.71h-7.8a6.24,6.24,0,0,0-12.14,0H132.7c-3.46,0-6.44,2.92-7.19,6.71H109.76c-4.09,0-7.2,3.93-7.2,8.73l.73,73.22c2.62,16.73-1.36,24.34,19.72,29.55h67.85c4.18-.19,6.73-6.89,5.89-11.71-2.84-16.33-12.43-44.55-9.41-74.23a3.25,3.25,0,0,0,0-.44V85.29C187.49,80.49,183,76.9,178.86,76.9Zm-32,4.22c3.35,0,5.95,3.21,5.95,7,0,3.93-2.73,7-5.95,7s-6-3.21-6-7S143.49,81.12,146.83,81.12Zm28.79,72.35a3,3,0,0,1-2.73,3.2h-46a3,3,0,0,1-2.73-3.2v-2.92a3,3,0,0,1,2.73-3.21h46a3,3,0,0,1,2.73,3.21Zm-1.36-29.56a3,3,0,0,1-2.73,3.21H126.87a3,3,0,0,1-2.73-3.21V121a3,3,0,0,1,2.73-3.2h44.66a3,3,0,0,1,2.73,3.2Z"/><path class="cls-4" d="M176,75.5H160.26c-.74-3.65-3.72-6.47-7.2-6.47h-7.8a6.29,6.29,0,0,0-12.14,0h-7.94c-3.46,0-6.44,2.82-7.19,6.47H102.24c-4.09,0-7.2,3.8-7.2,8.43v90.76c0,4.63,3.23,8.43,7.2,8.43h73.64c4.09,0,7.56-3.8,7.56-8.43V83.93C183.57,79.3,180.1,75.5,176,75.5ZM139.3,79.58c3.36,0,6,3.09,6,6.74,0,3.8-2.73,6.75-6,6.75s-6-3.09-6-6.75S136,79.58,139.3,79.58ZM162,149.4a3,3,0,0,1-2.73,3.1H119.35a3,3,0,0,1-2.73-3.1v-2.81a3,3,0,0,1,2.73-3.1h39.91a3,3,0,0,1,2.73,3.1Zm0-28.52a3,3,0,0,1-2.73,3.09H119.35a3,3,0,0,1-2.73-3.09v-2.82a3,3,0,0,1,2.73-3.09h39.91a3,3,0,0,1,2.73,3.09Z"/><circle class="cls-5" cx="102.56" cy="105.89" r="5.83"/><path class="cls-6" d="M73.55,94.27l-3.8.5c-2,.25-3.92,4.25-4.59,6.16l-1.54,4.42a.37.37,0,0,1-.71-.07l-.71-4.67c-.31-2-1.51-6.33-3.48-6.93l-3.67-1.12a.37.37,0,0,1,.07-.72l3.57-.34A5.35,5.35,0,0,0,63.22,88l1.65-4.66a.37.37,0,0,1,.72.07l.69,4.89a5.35,5.35,0,0,0,4,4.43l3.34.84A.37.37,0,0,1,73.55,94.27Z"/><path class="cls-7" d="M211.1,58.54l-3.8.49c-2,.26-3.92,4.26-4.59,6.16l-1.54,4.42a.37.37,0,0,1-.72-.06l-.7-4.67c-.31-2-1.52-6.33-3.48-6.93l-3.68-1.12a.38.38,0,0,1,.08-.73l3.57-.34a5.32,5.32,0,0,0,4.52-3.52l1.66-4.65a.37.37,0,0,1,.72.07l.69,4.89a5.34,5.34,0,0,0,4,4.42l3.33.84A.37.37,0,0,1,211.1,58.54Z"/><path class="cls-8" d="M224.7,170.31l-3.8.5c-2,.26-3.93,4.25-4.59,6.16l-1.54,4.42a.37.37,0,0,1-.72-.07l-.7-4.66c-.31-2-1.52-6.34-3.48-6.94l-3.68-1.12a.37.37,0,0,1,.08-.72l3.57-.34a5.34,5.34,0,0,0,4.52-3.52l1.66-4.66a.37.37,0,0,1,.71.07l.7,4.9a5.35,5.35,0,0,0,4,4.42l3.33.84A.37.37,0,0,1,224.7,170.31Z"/><circle class="cls-9" cx="60.75" cy="164.3" r="12.61"/><image width="128" height="128" transform="translate(84.16 185.73) scale(0.21 0.21)" xlink:href="../../../Downloads/%E7%A1%AE%E8%AE%A4%20%E5%AF%B9%E5%8B%BE%20%E5%8B%BE%E5%8F%B7.png"/></svg>