<svg id="图层_1" data-name="图层 1" xmlns="http://www.w3.org/2000/svg" viewBox="0 0 127 127"><defs><style>.cls-1{fill:#d26e3d;}</style></defs><title>4.26</title><path class="cls-1" d="M80.58,115h-49c-9.18,0-16.65-6.44-16.65-14.34v-63c0-15.13,14.3-27.44,31.88-27.44h49c9.18,0,16.65,6.43,16.65,14.33v63C112.46,102.64,98.16,115,80.58,115ZM46.81,18.9c-12,0-21.76,8.4-21.76,18.73v63c0,3.1,2.93,5.63,6.53,5.63h49c12,0,21.77-8.41,21.77-18.74v-63c0-3.1-2.94-5.62-6.54-5.62Z"/><path class="cls-1" d="M72.18,53.87H40.35a5.18,5.18,0,1,1,0-10.35H72.18a5.18,5.18,0,0,1,0,10.35Z"/><path class="cls-1" d="M87.76,80.64H40.35a5.18,5.18,0,1,1,0-10.35H87.76a5.18,5.18,0,0,1,0,10.35Z"/></svg>