<svg id="图层_1" data-name="图层 1" xmlns="http://www.w3.org/2000/svg" viewBox="0 0 127 127"><title>4.26</title><path d="M38.45,47.41H16a3,3,0,0,1,0-6H38.45a3,3,0,0,1,0,6Z"/><path d="M37.2,70H13.73a3,3,0,1,1,0-6H37.2a3,3,0,1,1,0,6Z"/><path d="M37.88,92.56H8.26c-2.19,0-4-1.34-4-3s1.77-3,4-3H37.88c2.18,0,4,1.34,4,3S40.06,92.56,37.88,92.56Z"/><path d="M112.83,63.11H52.58a8.85,8.85,0,0,1-8.71-10.37l2.5-14.14a8.81,8.81,0,0,1,8.7-7.3h60.26A8.84,8.84,0,0,1,124,41.67l-2.49,14.14A8.83,8.83,0,0,1,112.83,63.11ZM55.07,37.3a2.83,2.83,0,0,0-2.8,2.34L49.78,53.78a2.83,2.83,0,0,0,2.8,3.33h60.25a2.84,2.84,0,0,0,2.8-2.35l2.49-14.13a2.83,2.83,0,0,0-2.79-3.33Z"/><path d="M102.82,98.49H53.33a8.85,8.85,0,0,1-8.71-10.37L48.93,63.7a8.83,8.83,0,0,1,8.7-7.3h49.5a8.82,8.82,0,0,1,8.7,10.37l-4.3,24.42A8.83,8.83,0,0,1,102.82,98.49ZM57.63,62.4a2.82,2.82,0,0,0-2.79,2.34L50.53,89.16a2.83,2.83,0,0,0,2.8,3.33h49.49a2.84,2.84,0,0,0,2.8-2.34l4.31-24.42a2.81,2.81,0,0,0-.63-2.32,2.78,2.78,0,0,0-2.17-1Z"/></svg>