<svg  xmlns="http://www.w3.org/2000/svg" viewBox="0 0 127 127"><defs><style>.cls-1{fill:#515151;stroke:#515151;stroke-miterlimit:10;stroke-width:3px;}</style></defs><title>3,30</title><path class="cls-1" d="M111.49,19.52A15.4,15.4,0,0,0,97.1,29.28,16,16,0,0,0,101,46.36L86.61,67.09A15.32,15.32,0,0,0,70,69.77L53.19,55.14a15.34,15.34,0,1,0-23.66,7.8L19.77,79.78A15.23,15.23,0,0,0,1.23,88.56a15.71,15.71,0,0,0,6.83,19.51,15.31,15.31,0,0,0,20-4.63A15.69,15.69,0,0,0,25.62,83l10-17.32A15.12,15.12,0,0,0,50,61L66.36,75.14a15.44,15.44,0,0,0,5.86,19.27c6.34,4.15,14.88,2.69,20-3.17A15.55,15.55,0,0,0,92,71l14.63-21.46a14.81,14.81,0,0,0,16.1-4.39,15.39,15.39,0,0,0,2.69-16.59A14.94,14.94,0,0,0,111.49,19.52ZM15.38,103.44a8.93,8.93,0,0,1-8.79-7.32A9.49,9.49,0,0,1,12,85.88a9.07,9.07,0,0,1,9.76,14.88A8.47,8.47,0,0,1,15.38,103.44ZM38.8,59.29a9,9,0,0,1-9-9,9,9,0,1,1,9,9Zm41.71,31A8.91,8.91,0,0,1,71.73,83,9.5,9.5,0,0,1,77.09,72.7a9.07,9.07,0,0,1,9.76,14.88A8.84,8.84,0,0,1,80.51,90.27Zm31-46.35a8.91,8.91,0,0,1-8.78-7.32A9,9,0,0,1,119.05,30a8.92,8.92,0,0,1-1.22,11.47,9.75,9.75,0,0,1-6.34,2.44Z"/></svg>