<?xml version="1.0" encoding="utf-8"?>
<!-- Generator: Adobe Illustrator 23.0.2, SVG Export Plug-In . SVG Version: 6.00 Build 0)  -->
<svg  xmlns="http://www.w3.org/2000/svg" xmlns:xlink="http://www.w3.org/1999/xlink" x="0px" y="0px"
	 viewBox="0 0 137.3 128" style="enable-background:new 0 0 137.3 128;" xml:space="preserve">
<style type="text/css">
	.st0{fill:#666666;}
</style>
<path class="st0" d="M137.2,64.3c0-0.1,0-0.2,0-0.2l0-0.1c0-0.1,0-0.1,0-0.2l0,0c0-0.1,0-0.1,0-0.2l0,0c0-0.2-0.1-0.4-0.2-0.7l0,0
	c0-0.1-0.1-0.1-0.1-0.2l0,0c0-0.1-0.1-0.1-0.1-0.2c0,0,0,0,0,0c0-0.1-0.1-0.1-0.1-0.2c0,0,0,0,0-0.1c0,0,0-0.1-0.1-0.1
	c-1-1.8-25.8-44.2-68.2-44.2C26,17.9,1.6,60.3,0.6,62.2c0,0,0,0,0,0.1c0,0.1-0.1,0.1-0.1,0.2c0,0,0,0,0,0.1c0,0.1-0.1,0.1-0.1,0.2
	c0,0.1,0,0.1-0.1,0.2l0,0c0,0.1,0,0.1-0.1,0.2l0,0c0,0.1-0.1,0.3-0.1,0.4l0,0c0,0.1,0,0.1,0,0.2l0,0C0,63.9,0,64,0,64c0,0,0,0,0,0.1
	c0,0.1,0,0.1,0,0.2c0,0,0,0.1,0,0.1c0,0,0,0.1,0,0.1c0,0.1,0,0.1,0,0.2c0,0,0,0,0,0c0,0.7,0.2,1.4,0.6,2c0,0,0,0.1,0,0.1
	c1,1.8,25.4,44.3,67.9,44.3c41.9,0,66.6-41.5,68.1-44.2c0.1-0.2,0.2-0.3,0.3-0.5c0,0,0,0,0-0.1c0-0.1,0.1-0.2,0.1-0.3l0-0.1
	c0.1-0.2,0.1-0.4,0.2-0.7c0-0.1,0-0.2,0-0.2c0-0.1,0-0.2,0-0.2C137.2,64.7,137.3,64.5,137.2,64.3L137.2,64.3z M68.5,101.5
	c-26.7,0-45.9-20.8-54.4-32.2c-2.1-2.9-2.2-6.8,0-9.7c8.4-11.3,27.6-32.1,54.4-32.1c26.7,0,46.1,20.8,54.6,32.1
	c2.2,2.9,2.2,6.9,0,9.7C114.5,80.7,95.2,101.5,68.5,101.5z"/>
<path class="st0" d="M68.6,38.9c-14.4,0-26.1,11.5-26.1,25.5C42.5,78.6,54.2,90,68.6,90s26.1-11.5,26.1-25.5
	C94.8,50.4,83,38.9,68.6,38.9z M68.6,80.4c-9,0-16.3-7.1-16.3-15.9c0-8.8,7.3-15.9,16.3-15.9c9,0,16.3,7.1,16.3,15.9
	C84.9,73.3,77.6,80.4,68.6,80.4z"/>
</svg>
