<svg id="图层_1" data-name="图层 1" xmlns="http://www.w3.org/2000/svg" viewBox="0 0 127 127"><defs><style>.cls-1{fill:#515151;}</style></defs><title>3,30</title><path class="cls-1" d="M115.94,51.13a7.6,7.6,0,0,0-7.76,0l-39,25.44a12.61,12.61,0,0,1-13.87,0L16.72,51.49a7.6,7.6,0,0,0-7.83-.36A7.16,7.16,0,0,0,5,57.81v47.06a11.57,11.57,0,0,0,11.57,11.5h91.67A11.57,11.57,0,0,0,120,105V57.81A7.18,7.18,0,0,0,115.94,51.13Zm-3.16,52.23c0,2.45-2,5.82-4.53,5.82H18.66c-2.52,0-6.47-3.37-6.47-5.82v-45L51.64,84.18a19.88,19.88,0,0,0,21.55,0l39.59-25.86Z"/><path class="cls-1" d="M108.4,117.87H16.58a13.1,13.1,0,0,1-13.07-13V57.81a8.67,8.67,0,0,1,4.69-8,9.08,9.08,0,0,1,9.35.44L56.12,75.31a11,11,0,0,0,12.22,0l39-25.44a9.15,9.15,0,0,1,9.29-.06,8.68,8.68,0,0,1,4.81,8V105a13.06,13.06,0,0,1-13.06,12.86ZM12.5,51.72a6.12,6.12,0,0,0-2.9.73,5.71,5.71,0,0,0-3.09,5.3v47.12a10.09,10.09,0,0,0,10.07,10h91.8a10.05,10.05,0,0,0,10.08-9.94V57.81a5.68,5.68,0,0,0-3.18-5.33l-.1-.06a6.1,6.1,0,0,0-6.23,0L70,77.82a14.07,14.07,0,0,1-15.52,0L15.9,52.75A6.08,6.08,0,0,0,12.5,51.72Zm95.75,59H18.66c-3.15,0-8-3.92-8-7.32V55.54L52.46,82.93a18.44,18.44,0,0,0,19.92,0l41.9-27.38v47.82C114.28,106.68,111.59,110.68,108.25,110.68ZM13.69,61.09v42.27c0,1.54,3.21,4.32,5,4.32h89.59c1.5,0,3-2.51,3-4.32V61.09L74,85.44a21.43,21.43,0,0,1-23.18,0Z"/><path class="cls-1" d="M25.34,50.7A3.16,3.16,0,0,0,28.5,48V27a5.25,5.25,0,0,1,5.25-5.17H91.23A5.24,5.24,0,0,1,96.54,27h0V48c0,1.51,2.09,2.66,3.52,2.66s3.52-1.22,3.52-2.66V25.19a10.63,10.63,0,0,0-10.7-10.56H32.09A10.64,10.64,0,0,0,21.46,25.19V48a3,3,0,0,0,3.09,2.66Z"/><path class="cls-1" d="M25.38,52.2H25.2l-.7-.06h-.05a4.5,4.5,0,0,1-4.48-4v-23A12.17,12.17,0,0,1,32.09,13.13H92.73l.15,1.5v-1.5H93a12.14,12.14,0,0,1,12.13,12V48c0,2.5-3,4.16-5,4.16S95,50.51,95,48V27a3.68,3.68,0,0,0-1.13-2.61,3.85,3.85,0,0,0-2.66-1.06H33.75A3.76,3.76,0,0,0,30,27l0,21.27A4.69,4.69,0,0,1,25.38,52.2Zm-.78-3.07.81.07A1.67,1.67,0,0,0,27,47.9V27a6.78,6.78,0,0,1,6.75-6.67H91.23A6.73,6.73,0,0,1,98,27V48c0,.38,1.11,1.16,2,1.16s2-.83,2-1.16V25.19A9.14,9.14,0,0,0,93,16.13H32.09A9.15,9.15,0,0,0,23,25.2V47.87a1.54,1.54,0,0,0,1.54,1.26Z"/><path class="cls-1" d="M49,41.65H72.76c2.4,0,3.59,1.19,3.59,3.59s-1.19,3.59-3.59,3.59H49c-2.4,0-3.59-1.2-3.59-3.59S46.58,41.65,49,41.65Z"/><path class="cls-1" d="M72.76,50.33H49c-3.24,0-5.09-1.85-5.09-5.09s1.85-5.09,5.09-5.09H72.76c3.24,0,5.09,1.85,5.09,5.09S76,50.33,72.76,50.33ZM49,43.15c-1.57,0-2.09.53-2.09,2.09s.52,2.09,2.09,2.09H72.76c1.56,0,2.09-.53,2.09-2.09s-.53-2.09-2.09-2.09Z"/><path class="cls-1" d="M64.43,33.38V57.17q0,3.59-3.6,3.59t-3.59-3.59V33.38q0-3.59,3.59-3.59T64.43,33.38Z"/><path class="cls-1" d="M60.83,62.26c-3.23,0-5.09-1.86-5.09-5.09V33.38c0-3.23,1.86-5.09,5.09-5.09s5.1,1.86,5.1,5.09V57.17C65.93,60.4,64.07,62.26,60.83,62.26Zm0-31c-1.56,0-2.09.53-2.09,2.09V57.17c0,1.56.53,2.09,2.09,2.09s2.1-.53,2.1-2.09V33.38C62.93,31.82,62.4,31.29,60.83,31.29Z"/></svg>