<svg id="图层_1" data-name="图层 1" xmlns="http://www.w3.org/2000/svg" viewBox="0 0 127 127"><defs><style>.cls-1{fill:#d26e3f;}</style></defs><title>4.26</title><path class="cls-1" d="M63.38,61.62H33.27A25.48,25.48,0,0,1,7.82,36.17V31.5A25.47,25.47,0,0,1,33.27,6.06h4.67A25.47,25.47,0,0,1,63.38,31.5ZM33.27,16.06A15.46,15.46,0,0,0,17.82,31.5v4.67A15.47,15.47,0,0,0,33.27,51.62H53.38V31.5A15.45,15.45,0,0,0,37.94,16.06Z"/><path class="cls-1" d="M98.48,60.44H68.36V30.32A25.47,25.47,0,0,1,93.8,4.88h4.68a25.47,25.47,0,0,1,25.44,25.44V35A25.47,25.47,0,0,1,98.48,60.44Zm-20.12-10H98.48A15.46,15.46,0,0,0,113.92,35V30.32A15.46,15.46,0,0,0,98.48,14.88H93.8A15.46,15.46,0,0,0,78.36,30.32Z"/><path class="cls-1" d="M37.94,121.7H33.27A25.48,25.48,0,0,1,7.82,96.25V91.58A25.47,25.47,0,0,1,33.27,66.14H63.38V96.25A25.47,25.47,0,0,1,37.94,121.7ZM33.27,76.14A15.46,15.46,0,0,0,17.82,91.58v4.67A15.47,15.47,0,0,0,33.27,111.7h4.67A15.46,15.46,0,0,0,53.38,96.25V76.14Z"/><path class="cls-1" d="M98.48,121.76H93.8A25.47,25.47,0,0,1,68.36,96.32V66.2H98.48a25.47,25.47,0,0,1,25.44,25.45v4.67A25.47,25.47,0,0,1,98.48,121.76ZM78.36,76.2V96.32A15.46,15.46,0,0,0,93.8,111.76h4.68a15.46,15.46,0,0,0,15.44-15.44V91.65A15.46,15.46,0,0,0,98.48,76.2Z"/></svg>