<svg id="图层_1" data-name="图层 1" xmlns="http://www.w3.org/2000/svg" viewBox="0 0 127 127"><defs><style>.cls-1{fill:#d26e3d;}</style></defs><title>4.26</title><path class="cls-1" d="M112.23,29.38H73.82c-3.45,0-6.24-2.23-6.24-5s2.79-5,6.24-5h38.41c3.45,0,6.25,2.24,6.25,5S115.68,29.38,112.23,29.38Z"/><path class="cls-1" d="M112.23,52.89H73.82c-3.45,0-6.24-2.24-6.24-5s2.79-5,6.24-5h38.41c3.45,0,6.25,2.24,6.25,5S115.68,52.89,112.23,52.89Z"/><path class="cls-1" d="M112.23,82.43H73.82c-3.45,0-6.24-2.24-6.24-5s2.79-5,6.24-5h38.41c3.45,0,6.25,2.23,6.25,5S115.68,82.43,112.23,82.43Z"/><path class="cls-1" d="M112.23,105.93H73.82c-3.45,0-6.24-2.23-6.24-5s2.79-5,6.24-5h38.41c3.45,0,6.25,2.24,6.25,5S115.68,105.93,112.23,105.93Z"/><path class="cls-1" d="M50,60.4H20A10.13,10.13,0,0,1,9.89,50.29v-30A10.12,10.12,0,0,1,20,10.19H50a10.11,10.11,0,0,1,10.1,10.1v30A10.12,10.12,0,0,1,50,60.4ZM20,18.19a2.11,2.11,0,0,0-2.11,2.1v30A2.12,2.12,0,0,0,20,52.4H50a2.11,2.11,0,0,0,2.1-2.11v-30a2.1,2.1,0,0,0-2.1-2.1Z"/><path class="cls-1" d="M50,116.78H20A10.13,10.13,0,0,1,9.89,106.67v-30A10.12,10.12,0,0,1,20,66.57H50a10.11,10.11,0,0,1,10.1,10.1v30A10.12,10.12,0,0,1,50,116.78ZM20,74.57a2.11,2.11,0,0,0-2.11,2.1v30A2.12,2.12,0,0,0,20,108.78H50a2.11,2.11,0,0,0,2.1-2.11v-30a2.1,2.1,0,0,0-2.1-2.1Z"/></svg>