<svg id="图层_1" data-name="图层 1" xmlns="http://www.w3.org/2000/svg" viewBox="0 0 126.48 115.85"><defs><style>.cls-1{opacity:0.5;}.cls-2{fill:#515151;}</style></defs><title>4.26</title><g class="cls-1"><path class="cls-2" d="M108.77,23.87H70.35c-3.44,0-6.24-2.24-6.24-5s2.8-5,6.24-5h38.42c3.45,0,6.24,2.23,6.24,5S112.22,23.87,108.77,23.87Z"/><path class="cls-2" d="M108.77,47.37H70.35c-3.44,0-6.24-2.23-6.24-5s2.8-5,6.24-5h38.42c3.45,0,6.24,2.24,6.24,5S112.22,47.37,108.77,47.37Z"/><path class="cls-2" d="M108.77,76.91H70.35c-3.44,0-6.24-2.24-6.24-5s2.8-5,6.24-5h38.42c3.45,0,6.24,2.24,6.24,5S112.22,76.91,108.77,76.91Z"/><path class="cls-2" d="M108.77,100.42H70.35c-3.44,0-6.24-2.24-6.24-5s2.8-5,6.24-5h38.42c3.45,0,6.24,2.23,6.24,5S112.22,100.42,108.77,100.42Z"/><path class="cls-2" d="M46.53,54.88h-30A10.12,10.12,0,0,1,6.43,44.77v-30A10.11,10.11,0,0,1,16.54,4.67h30a10.11,10.11,0,0,1,10.11,10.1v30A10.12,10.12,0,0,1,46.53,54.88Zm-30-42.21a2.1,2.1,0,0,0-2.11,2.1v30a2.11,2.11,0,0,0,2.11,2.11h30a2.12,2.12,0,0,0,2.11-2.11v-30a2.11,2.11,0,0,0-2.11-2.1Z"/><path class="cls-2" d="M46.53,111.26h-30A10.12,10.12,0,0,1,6.43,101.15v-30A10.11,10.11,0,0,1,16.54,61.05h30A10.11,10.11,0,0,1,56.64,71.16v30A10.12,10.12,0,0,1,46.53,111.26Zm-30-42.21a2.1,2.1,0,0,0-2.11,2.11v30a2.11,2.11,0,0,0,2.11,2.11h30a2.12,2.12,0,0,0,2.11-2.11v-30a2.11,2.11,0,0,0-2.11-2.11Z"/></g></svg>