<svg id="图层_1" data-name="图层 1" xmlns="http://www.w3.org/2000/svg" viewBox="0 0 127 127"><defs><style>.cls-1{fill:#F77F4B;stroke:#F77F4B;stroke-miterlimit:10;stroke-width:3px;}</style></defs><title>3,30</title><path class="cls-1" d="M120.63,44.05c-2.65-3.14-19.1-23.18-25.38-30.18-1.93-2.16-3.36-3.66-6.34-3.77s-50.74,0-50.74,0c-1.64,0-3.73.38-6.44,3.65-6.29,7.62-20.49,24.42-25.28,30.3-3.25,3.88-3.65,9.4,0,15.09C14.24,68.5,35.67,93.9,57.2,119.49c3,3.64,5,3.77,6.35,3.77s3.22-.07,6.35-3.77c21.32-25.36,41.78-49.58,50.73-60.35C123.65,55.36,124.21,48.52,120.63,44.05Zm-6.35,11.31c-7.15,8.6-28.63,33.26-45.64,53.57-2.49,3-4,3-5.06,3s-2.62-.1-5.06-3C41.33,88.44,19,62.86,12.8,55.36c-1.73-1.83-1.69-4.91,0-7.54C16.61,43.11,30,27.48,35,21.42c3.74-4.51,7-3.78,8.33-3.78h40.5c4.85,0,6,1.11,8.25,3.78,4.86,5.76,20.1,23.89,22.2,26.4C116.16,50.57,115.59,53.18,114.28,55.36ZM63.55,97C58,89.32,38.32,64.63,33.3,57.57l-.39-.5c-.86-1.19.47-1.76-1.64-1.76H28.89A5.32,5.32,0,0,1,34.21,50H40c.33,0,.41,0,.63.37L63.49,80.69,86.36,50.45c.29-.46.39-.46.7-.46h5.77a5.32,5.32,0,0,1,5.32,5.32H97.9c-2.09,0-2.88.57-3.74,1.77-.09.11-.18.25-.31.4C88.77,64.6,69.1,89.32,63.55,97Z"/></svg>